<svg width="16" height="16" xmlns="http://www.w3.org/2000/svg" fill="context-fill" fill-opacity="context-fill-opacity">
  <path d="M7.975,1c-1.2884,0-2.3329,1.0446-2.3328,2.3331,0,.2252.0327.4493.0969.6652l-2.0903-.7904c-.8518-.29-1.7775.1655-2.0674,1.0174-.275.8079.12,1.6912.9056,2.0247l2.6885,1.0358v1.3046l-1.5332,4.2217c-.3077.8462.1289,1.7817.9752,2.0894.8462.3077,1.7817-.1289,2.0894-.9752l1.2682-3.4593,1.2738,3.4546c.3092.8447,1.2447,1.2788,2.0894.9696.8447-.3092,1.2788-1.2447.9696-2.0894h0l-1.5332-4.2207v-1.3008l2.6754-1.0144c.8447-.3206,1.2696-1.2652.949-2.1099s-1.2652-1.2696-2.1099-.949h0l-2.0782.7867c.3649-1.2357-.341-2.5332-1.5767-2.8981-.214-.0632-.436-.0954-.6591-.0955ZM7.975,1.9332c.7728-.02,1.4155.5903,1.4354,1.3632.02.7728-.5903,1.4155-1.3631,1.4354-.0241.0006-.0482.0006-.0723,0-.7731,0-1.3998-.6267-1.3998-1.3998s.6267-1.3998,1.3998-1.3998v.0009ZM3.0563,4.0347c.0893-.0015.178.0144.2613.0467l3.8297,1.4473c.5328.2016,1.1207.2016,1.6536,0l3.8204-1.4483c.3633-.1379.7696.0449.9075.4083.1379.3633-.0449.7696-.4083.9075h0l-2.9787,1.1273c-.1812.0685-.3009.2421-.3005.4358v1.7021c0,.0541.0093.1092.028.1596l1.5612,4.3c.1317.3608-.054.76-.4148.8916s-.76-.054-.8916-.4148h0l-1.2784-3.4705c-.2977-.8091-1.4436-.8081-1.7404.0019l-1.2738,3.4779c-.1317.3618-.5317.5483-.8935.4167-.3618-.1317-.5483-.5317-.4167-.8935l1.5584-4.2982c.0189-.0511.0287-.1051.0289-.1596v-1.7077c.0002-.1931-.1185-.3663-.2986-.4358l-2.9871-1.1497c-.3583-.138-.5369-.5403-.3989-.8986.1012-.2627.3508-.4384.6322-.4451v-.0009Z"/>
</svg>