<svg width="16" height="16" xmlns="http://www.w3.org/2000/svg" fill="context-fill" fill-opacity="context-fill-opacity">
  <path d="M3.833,1c-1.031,0-1.867.836-1.867,1.867v10.267c0,1.031.836,1.867,1.867,1.867h4.06c-.373-.267-.711-.581-1.004-.933h-3.055c-.515,0-.933-.418-.933-.933h3.365c-.157-.298-.284-.61-.379-.933h-2.987V2.867c0-.515.418-.933.933-.933h7.467c.515,0,.933.418.933.933v2.986c.323.091.636.216.933.371v-3.357c0-1.031-.836-1.867-1.867-1.867H3.833ZM4.767,2.867c-.515,0-.933.418-.933.933v.933c0,.515.418.933.933.933h5.6c.515,0,.933-.418.933-.933v-.933c0-.515-.418-.933-.933-.933h-5.6ZM4.767,3.8h5.6v.933h-5.6v-.933Z"/>
  <path d="M15.033,10.8c0,2.32-1.88,4.2-4.2,4.2s-4.2-1.88-4.2-4.2,1.88-4.2,4.2-4.2,4.2,1.88,4.2,4.2ZM11.3,8.933c0-.258-.209-.467-.467-.467s-.467.209-.467.467v1.4h-1.4c-.258,0-.467.209-.467.467s.209.467.467.467h1.4v1.4c0,.258.209.467.467.467s.467-.209.467-.467v-1.4h1.4c.258,0,.467-.209.467-.467s-.209-.467-.467-.467h-1.4v-1.4Z"/>
</svg>
