<svg width="16" height="16" xmlns="http://www.w3.org/2000/svg" fill="context-fill" fill-opacity="context-fill-opacity">
  <defs>
    <style>
      .st0 {
        fill-rule: evenodd;
      }
    </style>
  </defs>
  <path d="M1.853,1.58l.17-.796c.08-.377.619-.377.701,0l.17.796c.029.138.137.245.274.274l.796.17c.377.08.377.619,0,.701l-.795.171c-.138.029-.245.137-.274.274l-.171.796c-.08.377-.619.377-.701,0l-.17-.796c-.029-.138-.137-.245-.274-.274l-.796-.171c-.377-.08-.377-.619,0-.701l.796-.17c.138-.029.245-.137.274-.274ZM1.853,12.83l.17-.796c.08-.377.619-.377.701,0l.17.796c.029.138.137.245.274.274l.796.17c.377.08.377.619,0,.701l-.796.17c-.138.029-.245.137-.274.274l-.17.796c-.08.377-.619.377-.701,0l-.17-.796c-.029-.138-.137-.245-.274-.274l-.796-.17c-.377-.08-.377-.619,0-.701l.796-.17c.138-.029.245-.137.274-.274Z"/>
  <path class="st0" d="M10.122,2.244c-.425-1.076-1.946-1.076-2.37,0l-1.177,2.987c-.074.186-.222.334-.408.408l-2.986,1.176c-1.076.424-1.076,1.946,0,2.37l2.987,1.177c.186.074.334.222.408.408l1.176,2.986c.424,1.076,1.946,1.076,2.37,0l1.177-2.987c.074-.186.222-.333.408-.407l2.986-1.177c1.076-.424,1.076-1.946,0-2.37l-2.987-1.177c-.186-.074-.333-.222-.407-.408,0,0-1.177-2.986-1.177-2.986ZM7.883,5.747l1.054-2.674,1.054,2.675c.216.549.65.982,1.199,1.199l2.674,1.054-2.674,1.054c-.549.216-.982.651-1.199,1.199l-1.054,2.674-1.054-2.675c-.216-.549-.65-.982-1.199-1.199l-2.674-1.054,2.674-1.054c.549-.216.982-.651,1.199-1.199Z"/>
</svg>