<svg width="16" height="16" xmlns="http://www.w3.org/2000/svg" fill="context-fill" fill-opacity="context-fill-opacity">
  <path d="M12.986,7.035c-.423,0-.847.159-1.17.484l-4.273,4.274c-.249.249-.426.561-.512.903l-.332,1.326c-.105.422.151.849.573.954.125.031.256.031.381,0l1.326-.332c.342-.086.654-.262.903-.512l4.273-4.273c.645-.649.642-1.698-.007-2.343-.309-.307-.727-.48-1.163-.482ZM12.984,7.922c.378.002.594.198.708.475.115.278.103.569-.165.838l-4.271,4.271c-.136.136-.306.232-.492.279l-1.165.294.292-1.168h-.003c.047-.186.144-.357.28-.493l4.273-4.274c.144-.144.34-.224.543-.221ZM7.439,14.117l.002.002h-.004l.002-.002ZM11.933,1.002c-.071.004-.143.018-.214.04l-6.195,1.936c-.369.115-.62.457-.62.843v7.196c-.977-.733-2.364-.535-3.097.442-.733.977-.535,2.364.442,3.097.977.733,2.364.535,3.097-.442.287-.383.442-.849.442-1.327v-6.312l6.195-1.936v1.819c.283-.121.584-.188.885-.203V1.885c0-.522-.442-.913-.935-.883ZM11.983,1.885v1.728l-6.195,1.936v-1.728l6.195-1.936ZM3.576,11.46c.733,0,1.327.594,1.327,1.327s-.594,1.327-1.327,1.327h0c-.733,0-1.327-.594-1.327-1.327s.594-1.327,1.327-1.327Z"/>
</svg>