<svg width="16" height="16" xmlns="http://www.w3.org/2000/svg" fill="context-fill" fill-opacity="context-fill-opacity">
  <defs>
    <style>
      .st0 {
        fill: none;
      }

      .st1 {
        clip-path: url(#clippath);
      }
    </style>
    <clipPath id="clippath">
      <path class="st0" d="M2.798.946l12.256,12.256V.946H2.798ZM.946,1.563v13.491h13.49L.946,1.563Z"/>
    </clipPath>
  </defs>
  <g class="st1">
    <path d="M12.356,1.107c-.071.004-.143.015-.213.038l-6.172,1.929c-.368.115-.618.456-.618.842v7.17c-.974-.73-2.356-.533-3.086.441s-.533,2.356.441,3.086,2.356.533,3.086-.441c.286-.382.441-.846.441-1.323v-6.289l6.172-1.929v4.691c-.974-.73-2.356-.533-3.086.441s-.533,2.356.441,3.086,2.356.533,3.086-.441c.286-.382.441-.846.441-1.323V1.987c0-.52-.441-.91-.932-.88h0ZM12.406,1.987v1.722l-6.172,1.929v-1.722s6.172-1.929,6.172-1.929ZM11.083,9.764c.73,0,1.323.592,1.323,1.323s-.592,1.323-1.323,1.323-1.323-.592-1.323-1.323.592-1.323,1.323-1.323ZM4.03,11.527c.73,0,1.323.592,1.323,1.323s-.592,1.323-1.323,1.323-1.323-.592-1.323-1.323.592-1.323,1.323-1.323Z"/>
  </g>
  <path d="M1.388.947c-.117,0-.229.046-.312.129-.172.172-.172.451,0,.623l13.226,13.226c.172.172.451.172.623,0s.172-.451,0-.623L1.7,1.075c-.083-.083-.195-.129-.312-.129h0Z"/>
</svg>