<svg width="16" height="16" xmlns="http://www.w3.org/2000/svg" fill="context-fill" fill-opacity="context-fill-opacity">
  <path d="M8.0013,1.1788c-.34-.0026-.6512.1904-.7999.4961l-1.7191,3.4855-3.8445.5585c-.4868.0707-.8242.5227-.7535,1.0095.0281.1936.1192.3725.2591.5092l2.7818,2.7123-.6556,3.8302c-.0823.485.2442.9449.7293,1.0271.1921.0326.3897.0013.5623-.0892l3.4401-1.8073,3.4374,1.8082c.4356.2286.9741.0607,1.2026-.3749.0911-.1737.1224-.3725.0889-.5658l-.6556-3.8293,2.7818-2.7123c.352-.3437.3587-.9076.0151-1.2596-.1365-.1398-.3152-.2309-.5085-.2591l-3.8445-.5585-1.7191-3.4846c-.1484-.3059-.4599-.4987-.7999-.4953l.0018-.0009Z"/>
</svg>