<svg width="16" height="16" xmlns="http://www.w3.org/2000/svg" fill="context-fill" fill-opacity="context-fill-opacity">
  <path d="M6.24.98c-.531,0-1.018.299-1.256.775l-.553,1.101h-1.583c-1.294-.001-2.343,1.048-2.343,2.343v7.5c0,1.294,1.049,2.344,2.344,2.344h10.312c1.294,0,2.344-1.049,2.344-2.344v-7.5c0-1.294-1.049-2.344-2.344-2.344h-1.583l-.549-1.097c-.239-.476-.726-.778-1.259-.778h-3.531ZM6.24,1.917h3.529c.177,0,.34.101.419.259l.68,1.355c.08.159.24.26.417.26h1.875c.777,0,1.406.63,1.406,1.406h0v7.5c0,.777-.63,1.406-1.406,1.406H2.847c-.777,0-1.406-.63-1.406-1.406v-7.5c0-.777.63-1.406,1.406-1.406h1.874c.177,0,.339-.1.419-.259l.682-1.358c.08-.158.242-.258.42-.258h-.002ZM7.999,4.729c-2.071,0-3.75,1.679-3.75,3.75s1.679,3.75,3.75,3.75,3.75-1.679,3.75-3.75-1.679-3.75-3.75-3.75ZM7.999,5.667c1.553,0,2.812,1.259,2.812,2.812s-1.259,2.812-2.812,2.812-2.812-1.259-2.812-2.812,1.259-2.812,2.812-2.812Z"/>
</svg>