<svg width="16" height="16" xmlns="http://www.w3.org/2000/svg" fill="context-fill" fill-opacity="context-fill-opacity">
  <path class="st0" d="M4.088,4.088c.228-.228.597-.228.825,0l1.921,1.921,1.921-1.921c.228-.228.597-.228.825,0,.228.228.228.597,0,.825l-1.921,1.921,1.921,1.921c.228.228.228.597,0,.825-.228.228-.597.228-.825,0l-1.921-1.921-1.921,1.921c-.228.228-.597.228-.825,0-.228-.228-.228-.597,0-.825l1.921-1.921-1.921-1.921c-.228-.228-.228-.597,0-.825ZM3.333,1c-1.289,0-2.333,1.045-2.333,2.333v7c0,1.289,1.045,2.333,2.333,2.333h7c1.289,0,2.333-1.045,2.333-2.333V3.333c0-1.289-1.045-2.333-2.333-2.333H3.333ZM2.167,3.333c0-.644.522-1.167,1.167-1.167h7c.644,0,1.167.522,1.167,1.167v7c0,.644-.522,1.167-1.167,1.167H3.333c-.644,0-1.167-.522-1.167-1.167V3.333ZM13.833,2.479c.697.403,1.167,1.158,1.167,2.021v6.417c0,2.255-1.828,4.083-4.083,4.083h-6.417c-.864,0-1.618-.469-2.021-1.167h8.438c1.611,0,2.917-1.306,2.917-2.917V2.479Z"/>
</svg>