<svg width="16" height="16" xmlns="http://www.w3.org/2000/svg" fill="context-fill" fill-opacity="context-fill-opacity">
  <path id="svg_1" d="M13.25,1.875c.962,0,1.75.788,1.75,1.75v8.75c0,.962-.788,1.75-1.75,1.75H2.75c-.962,0-1.75-.788-1.75-1.75V3.625c0-.962.788-1.75,1.75-1.75,0,0,10.5,0,10.5,0ZM13.25,2.75h-6.125v10.5h6.125c.488,0,.875-.387.875-.875V3.625c0-.488-.387-.875-.875-.875h0ZM6.25,2.75h-3.5c-.488,0-.875.387-.875.875v8.75c0,.488.387.875.875.875h3.5V2.75h0ZM4.937,4.5c.242,0,.438.196.438.438h0c0,.242-.196.438-.438.438h-1.75c-.242,0-.438-.196-.438-.438h0c0-.242.196-.438.438-.438h1.75ZM4.937,7.125c.242,0,.438.196.438.438h0c0,.242-.196.438-.438.438h-1.75c-.242,0-.438-.196-.438-.438h0c0-.242.196-.438.438-.438h1.75ZM4.937,9.75c.242,0,.438.196.438.438s-.196.438-.438.438h-1.75c-.242,0-.438-.196-.438-.438,0-.242.196-.438.438-.438h1.75Z"/>
</svg>