<svg width="16" height="16" xmlns="http://www.w3.org/2000/svg" fill="context-fill" fill-opacity="context-fill-opacity">
  <path d="M2.6563.875c-.9795,0-1.7813.8019-1.7813,1.7814v1.3359c0,.2461.1995.4456.4456.4456s.4456-.1995.4456-.4456v-1.3359c0-.4969.3943-.8903.8902-.8903h1.3358c.2461,0,.4456-.1995.4456-.4456s-.1995-.4456-.4456-.4456h-1.3367s.001,0,.001,0ZM12.0079.875c-.2461,0-.4456.1995-.4456.4456s.1995.4456.4456.4456h1.3358c.4969,0,.8902.3943.8902.8903v1.3359c0,.2461.1995.4456.4456.4456s.4456-.1995.4456-.4456v-1.3359c0-.9796-.8018-1.7814-1.7813-1.7814h-1.3367s.001,0,.001,0ZM4.8833,2.6565c-1.2284.0038-2.2232.9986-2.2269,2.2271v6.2347c0,1.2247,1.0013,2.2271,2.2269,2.2271h6.2343c1.2246,0,2.2269-1.0014,2.2269-2.2271v-6.2347c0-1.2247-1.0013-2.2271-2.2269-2.2271,0,0-6.2343,0-6.2343,0ZM4.8833,3.5468h2.2269v1.3359c0,.7325.6023,1.3359,1.3358,1.3359h4.0083v4.8979c0,.743-.5938,1.3359-1.3358,1.3359h-6.2343c-.743,0-1.3358-.5938-1.3358-1.3359v-6.2347c0-.743.5938-1.3359,1.3358-1.3359h-.001v.001h0ZM7.9995,3.5468h3.1162c.743,0,1.3358.5938,1.3358,1.3359v.4456h-4.0083c-.2422.0029-.4418-.1901-.4456-.4323v-1.3473h.0019s0-.0019,0-.0019ZM1.3206,11.5621c-.2461,0-.4456.1995-.4456.4456v1.3359c0,.9796.8018,1.7814,1.7813,1.7814h1.3358c.2461,0,.4456-.1995.4456-.4456s-.1995-.4456-.4456-.4456h-1.3358c-.4969,0-.8902-.3943-.8902-.8903v-1.3359c0-.2461-.1995-.4456-.4456-.4456h.001s-.001,0-.001,0ZM14.6794,11.5621c-.2461,0-.4456.1995-.4456.4456v1.3359c0,.4969-.3943.8903-.8902.8903h-1.3358c-.2461,0-.4456.1995-.4456.4456s.1995.4456.4456.4456h1.3358c.9795,0,1.7813-.8019,1.7813-1.7814v-1.3359c0-.2461-.1995-.4456-.4456-.4456h.001s-.001,0-.001,0Z"/>
</svg>