<svg width="16" height="16" xmlns="http://www.w3.org/2000/svg" fill="context-fill" fill-opacity="context-fill-opacity">
  <path d="M3.1793.5c-.2958,0-.5356.2398-.5356.5356v8.0389c0,1.1833.9593,2.1426,2.1426,2.1426h1.0756v2.1404c0,1.1833.9593,2.1426,2.1426,2.1426s2.1426-.9593,2.1426-2.1426v-2.1404h1.067c1.1833,0,2.1426-.9593,2.1426-2.1426V1.0356c0-.2958-.2398-.5356-.5356-.5356H3.1793ZM3.7149,1.5713h4.2851v1.6069c0,.2958.2398.5356.5356.5356s.5356-.2398.5356-.5356v-1.6069h1.0713v2.6803c0,.2958.2398.5356.5356.5356s.5356-.2398.5356-.5356V1.5713h1.0713v5.3607H3.7149V1.5713ZM3.7149,8.0032h8.5702v1.0713c0,.5916-.4796,1.0713-1.0713,1.0713h-1.6026c-.2958,0-.5356.2398-.5356.5356v2.676c0,.5916-.4796,1.0713-1.0713,1.0713s-1.0713-.4796-1.0713-1.0713v-2.676c0-.2958-.2398-.5356-.5356-.5356h-1.6112c-.5916,0-1.0713-.4796-1.0713-1.0713v-1.0713Z"/>
</svg>