<svg width="16" height="16" xmlns="http://www.w3.org/2000/svg" fill="context-fill" fill-opacity="context-fill-opacity">
  <path d="M8,.75C4.898.75,2.375,3.273,2.375,6.375v3.188l-.87,2.09c-.248.597.211,1.285.857,1.285h3.295c0,1.289,1.054,2.344,2.344,2.344s2.344-1.055,2.344-2.344h3.295c.647,0,1.107-.689.857-1.285l-.869-2.09v-3.188c-.002-3.102-2.526-5.625-5.627-5.625h-.001ZM8,1.688c2.594,0,4.687,2.093,4.687,4.687v3.281c0,.062.014.122.038.179l.9,2.165H2.375l.9-2.165c.024-.056.037-.118.038-.179v-3.281c0-2.594,2.093-4.687,4.687-4.687ZM6.594,12.938h2.813c0,.782-.625,1.406-1.406,1.406s-1.406-.625-1.406-1.406c0,0,0,0,0,0Z"/>
</svg>