<svg width="16" height="16" xmlns="http://www.w3.org/2000/svg" fill="context-fill" fill-opacity="context-fill-opacity">
  <path d="M8,1c-.3,0-.5.187-.5.467v9.147l-3.6-3.36c-.2-.187-.5-.187-.7,0s-.2.467,0,.653h0l4.5,4.2c.2.187.5.187.7,0l4.5-4.2c.2-.187.2-.467,0-.653s-.5-.187-.7,0l-3.6,3.36V1.467c0-.28-.2-.467-.5-.467h-.1Z"/>
  <path d="M1.5,11.267c-.3,0-.5.187-.5.467v.933c0,1.307,1.1,2.333,2.5,2.333h9c1.4,0,2.5-1.027,2.5-2.333v-.933c0-.28-.2-.467-.5-.467s-.5.187-.5.467v.933c0,.747-.7,1.4-1.5,1.4H3.5c-.8,0-1.5-.653-1.5-1.4v-.933c0-.28-.2-.467-.5-.467Z"/>
</svg>