<svg width="16" height="16" xmlns="http://www.w3.org/2000/svg" fill="context-fill" fill-opacity="context-fill-opacity">
  <path d="M5.8,1c-1.2,0-2.2,1-2.2,2.2v7c0,1.2,1,2.2,2.2,2.2h7c1.2,0,2.2-1,2.2-2.2V3.2c0-1.2-1-2.2-2.2-2.2h-7ZM5.8,1.9h1.3v1.3c0,.7.6,1.3,1.3,1.3h5.7v5.7c0,.7-.6,1.3-1.3,1.3h-7c-.7,0-1.3-.6-1.3-1.3V3.2c0-.7.6-1.3,1.3-1.3ZM8,1.9h4.8c.7,0,1.3.6,1.3,1.3v.4h-5.7c-.2,0-.4-.2-.4-.4v-1.3ZM2.8,3.7c-1,.2-1.8,1.1-1.7,2.1v5.7c0,1.9,1.6,3.5,3.5,3.5h5.7c1,0,1.9-.7,2.1-1.7h-.9c-.2.5-.7.9-1.2.9h-5.7c-1.4,0-2.6-1.2-2.6-2.6v-5.7c0-.6.4-1.1.9-1.2v-.9Z"/>
</svg>