<svg width="16" height="16" xmlns="http://www.w3.org/2000/svg" fill="context-fill" fill-opacity="context-fill-opacity">
  <path d="M6.25,1c-.966,0-1.75.784-1.75,1.75v.438c0,.242.196.438.438.438s.438-.196.438-.438v-.438c0-.483.392-.875.875-.875h.438c.242,0,.438-.196.438-.438s-.196-.438-.438-.438h-.438ZM8.438,1c-.242,0-.438.196-.438.438s.196.438.438.438h2.625c.242,0,.438-.196.438-.438s-.196-.438-.438-.438h-2.625ZM12.812,1c-.242,0-.438.196-.438.438s.196.438.438.438h.438c.483,0,.875.392.875.875v.438c0,.242.196.438.438.438s.438-.196.438-.438v-.438c0-.966-.784-1.75-1.75-1.75h-.438ZM2.75,4.5c-.966,0-1.75.784-1.75,1.75v5.688c0,1.691,1.371,3.062,3.062,3.062h5.688c.966,0,1.75-.784,1.75-1.75v-.875h-.875v.875c0,.483-.392.875-.875.875h-5.688c-1.208,0-2.188-.979-2.188-2.188v-5.688c0-.483.392-.875.875-.875h.875v-.875h-.875ZM4.938,4.5c-.242,0-.438.196-.438.438v2.625c0,.242.196.438.438.438s.438-.196.438-.438v-2.625c0-.242-.196-.438-.438-.438ZM14.562,4.5c-.242,0-.438.196-.438.438v2.625c0,.242.196.438.438.438s.438-.196.438-.438v-2.625c0-.242-.196-.438-.438-.438ZM4.938,8.875c-.242,0-.438.196-.438.438v.438c0,.966.784,1.75,1.75,1.75h.438c.242,0,.438-.196.438-.438s-.196-.438-.438-.438h-.438c-.483,0-.875-.392-.875-.875v-.438c0-.242-.196-.438-.438-.438ZM14.562,8.875c-.242,0-.438.196-.438.438v.438c0,.483-.392.875-.875.875h-.438c-.242,0-.438.196-.438.438s.196.438.438.438h.438c.966,0,1.75-.784,1.75-1.75v-.438c0-.242-.196-.438-.438-.438ZM8.438,10.625c-.242,0-.438.196-.438.438s.196.438.438.438h2.625c.242,0,.438-.196.438-.438s-.196-.438-.438-.438h-2.625Z"/>
</svg>