<svg width="16" height="16" xmlns="http://www.w3.org/2000/svg" fill="context-fill" fill-opacity="context-fill-opacity">
  <path d="M5.812,1c-.556,0-1.052.351-1.237.875h-1.388c-.725,0-1.312.588-1.312,1.312v10.5c0,.725.588,1.312,1.312,1.312h2.625c.242,0,.438-.196.438-.438s-.196-.438-.438-.438h-2.625c-.242,0-.438-.196-.438-.438V3.188c0-.242.196-.438.438-.438h1.388c.185.524.681.875,1.237.875h2.625c.556,0,1.052-.351,1.237-.875h1.388c.242,0,.438.196.438.438v.875c0,.242.196.438.438.438s.438-.196.438-.438v-.875c0-.725-.588-1.312-1.312-1.312h-1.388c-.185-.524-.681-.875-1.237-.875h-2.625ZM5.812,1.875h2.625c.242,0,.438.196.438.438s-.196.438-.438.438h-2.625c-.242,0-.438-.196-.438-.438s.196-.438.438-.438ZM8.438,5.375c-.725,0-1.312.588-1.312,1.312v7c0,.725.588,1.312,1.312,1.312h4.375c.725,0,1.312-.588,1.312-1.312h0v-7c0-.725-.588-1.312-1.312-1.312h-4.375ZM8.438,6.25h4.375c.242,0,.438.196.438.438v7c0,.242-.196.438-.438.438h-4.375c-.242,0-.438-.196-.438-.438v-7c0-.242.196-.438.438-.438Z"/>
</svg>