<svg width="16" height="16" xmlns="http://www.w3.org/2000/svg" fill="context-fill" fill-opacity="context-fill-opacity">
  <path d="M5.99,1c-1.11,0-2.01.9-2.01,2.01v7.969c0,1.11.9,2.01,2.01,2.01h6.031c1.11,0,2.01-.9,2.01-2.01V3.01c0-1.11-.9-2.01-2.01-2.01h-6.031ZM5.99,2.005h6.031c.555,0,1.005.45,1.005,1.005v7.969c0,.555-.45,1.005-1.005,1.005h-6.031c-.555,0-1.005-.45-1.005-1.005V3.01c0-.555.45-1.005,1.005-1.005ZM2.974,3.28c-.601.348-1.005.997-1.005,1.741v6.462c0,1.943,1.575,3.518,3.518,3.518h4.523c.744,0,1.394-.404,1.741-1.005h-6.264c-1.388,0-2.513-1.125-2.513-2.513V3.28Z"/>
</svg>