<svg width="16" height="16" xmlns="http://www.w3.org/2000/svg" fill="context-fill" fill-opacity="context-fill-opacity">
  <path d="M4.07,1c-.242-.004-.44.189-.444.431-.001.086.023.171.07.244l3.783,5.826-1.683,2.59c-1.261-.715-2.863-.272-3.578.99-.715,1.261-.272,2.863.99,3.578,1.261.715,2.863.272,3.578-.99.55-.97.426-2.182-.307-3.021l1.522-2.344,1.522,2.345c-.954,1.092-.842,2.75.249,3.704,1.092.954,2.75.842,3.704-.249.954-1.092.842-2.75-.249-3.704-.84-.734-2.051-.857-3.021-.307L4.43,1.201c-.08-.122-.215-.197-.36-.199v-.002ZM11.93,1c-.146.003-.281.078-.36.2l-3.048,4.694.523.803,3.26-5.022c.131-.203.074-.474-.129-.605-.073-.047-.158-.072-.245-.07h0ZM4.5,10.624c.966,0,1.75.783,1.75,1.75s-.783,1.75-1.75,1.75-1.75-.783-1.75-1.75.783-1.75,1.75-1.75ZM11.5,10.624c.966,0,1.75.783,1.75,1.75s-.783,1.75-1.75,1.75-1.75-.783-1.75-1.75.783-1.75,1.75-1.75Z"/>
</svg>