<svg width="16" height="16" xmlns="http://www.w3.org/2000/svg" fill="context-fill" fill-opacity="context-fill-opacity">
  <path d="M10.843,1.712c.952-.95,2.494-.949,3.445.003.903.905.953,2.355.114,3.32l-.114.123L5.88,13.564c-.179.179-.395.318-.633.405l-.144.046-3.549.968c-.233.064-.474-.073-.538-.306-.015-.053-.019-.108-.013-.163l.014-.07.969-3.548c.067-.244.185-.471.348-.665l.102-.112L10.843,1.712ZM10.09,3.703l-7.037,7.036c-.08.081-.144.176-.188.281l-.037.108-.767,2.811,2.811-.767c.073-.02.143-.049.208-.088l.095-.062.086-.075,7.035-7.037-2.207-2.206ZM13.669,2.331c-.571-.571-1.482-.612-2.102-.096l-.105.096-.753.753,2.206,2.208.754-.753c.57-.571.612-1.482.096-2.102l-.095-.105Z"/>
</svg>