<svg width="16" height="16" xmlns="http://www.w3.org/2000/svg" fill="context-fill" fill-opacity="context-fill-opacity">
  <path d="M8,1c-1.247,0-2.258,1.011-2.258,2.258H1.677c-.249,0-.452.202-.452.452l.007.081c.039.215.226.37.444.37h.499l1.171,9.239c.105.911.876,1.599,1.794,1.6h5.716c.917,0,1.689-.688,1.794-1.6l1.17-9.239h.501c.249,0,.452-.202.452-.452s-.202-.452-.452-.452h-4.065c0-1.247-1.011-2.258-2.258-2.258ZM8,1.903c.748,0,1.355.607,1.355,1.355h-2.71c0-.748.607-1.355,1.355-1.355ZM3.086,4.161h9.824l-1.156,9.137c-.052.456-.438.799-.897.798h-5.716c-.458,0-.844-.343-.896-.798l-1.16-9.137ZM6.645,6.419c-.249,0-.452.177-.452.396v4.628l.007.07c.038.184.223.325.444.325.249,0,.452-.177.452-.396v-4.628l-.007-.071c-.038-.184-.223-.324-.444-.324ZM9.355,6.419c-.249,0-.452.177-.452.396v4.628l.007.07c.038.184.223.325.444.325.249,0,.452-.177.452-.396v-4.628l-.007-.071c-.038-.184-.223-.324-.444-.324Z"/>
</svg>