<svg width="16" height="16" xmlns="http://www.w3.org/2000/svg" fill="context-fill" fill-opacity="context-fill-opacity">
  <path d="M8.4343,13.9515l5.4639-5.515c1.474-1.497,1.469-3.915-.015-5.414-1.455-1.47-3.787-1.508-5.2729-.106-.032.03-.064.061-.095.093l-.522.528-.529-.534c-.029-.029-.058-.058-.088-.086-1.489-1.412-3.825-1.391-5.2729.072-1.477,1.492-1.47,3.917.014,5.415l5.4919,5.548c.228.23.597.23.825,0v-.001ZM9.1373,3.6244c1.134-1.145,2.977-1.145,4.124.014,1.148,1.16,1.15,3.029.014,4.183h0l-5.2529,5.303L2.7394,7.7885c-1.149-1.161-1.15-3.036-.014-4.184,1.132-1.143,2.973-1.142,4.118.014l.84.849c.171.173.451.173.622,0l.832-.842v-.001Z"/>
</svg>