<svg width="16" height="16" xmlns="http://www.w3.org/2000/svg" fill="context-fill" fill-opacity="context-fill-opacity">
  <path d="M1.7472,1.1282c-.171-.171-.448-.171-.6189,0s-.171.448,0,.6189l1.1119,1.1119c-.046.042-.092.086-.136.131-1.4768,1.4918-1.4698,3.9166.014,5.4144l5.4914,5.5474c.228.23.5969.23.8249,0l2.4377-2.4607,3.3806,3.3806c.171.171.448.171.6189,0s.171-.448,0-.6189c-.001-.001-13.1246-13.1246-13.1246-13.1246ZM10.2533,10.8722l-2.2318,2.2528L2.7391,7.7885c-1.1489-1.1609-1.1499-3.0357-.014-4.1836.044-.044.088-.086.134-.127l7.3932,7.3932.001.001ZM13.2739,7.8225l-1.7888,1.8058.6189.6189,1.7938-1.8108c1.4738-1.4968,1.4688-3.9146-.015-5.4134-1.4548-1.4698-3.7866-1.5078-5.2724-.106-.032.03-.064.061-.095.093l-.5219.5279-.5289-.5339c-.029-.029-.058-.058-.088-.086-.9759-.9249-2.3148-1.2349-3.5296-.9269l.7639.7639c.7999-.045,1.6168.243,2.2318.8649l.8399.8489c.171.173.451.173.6219,0l.8319-.8419c1.1339-1.1449,2.9767-1.1449,4.1236.014,1.1479,1.1599,1.1499,3.0287.014,4.1826h0v-.001Z"/>
</svg>