<svg width="16" height="16" xmlns="http://www.w3.org/2000/svg" fill="context-fill" fill-opacity="context-fill-opacity">
  <path class="st0" d="M11.5,1c1.933,0,3.5,1.567,3.5,3.5v7c0,1.933-1.567,3.5-3.5,3.5h-2.917c-.322,0-.583-.261-.583-.583s.261-.583.583-.583h2.917c1.289,0,2.333-1.045,2.333-2.333v-7c0-1.289-1.045-2.333-2.333-2.333h-7c-1.289,0-2.333,1.045-2.333,2.333v4.083c0,.322-.261.583-.583.583s-.583-.261-.583-.583v-4.083c0-1.933,1.567-3.5,3.5-3.5h7ZM10.333,6.258c.002-.152-.055-.305-.171-.42-.062-.062-.134-.107-.212-.135-.063-.023-.13-.036-.201-.036h-4.667c-.322,0-.583.261-.583.583s.261.583.583.583h3.258s-6.004,6.004-6.004,6.004c-.228.228-.228.597,0,.825.228.228.597.228.825,0l6.004-6.004v3.258c0,.322.261.583.583.583s.583-.261.583-.583v-4.659Z"/>
</svg>