<svg width="16" height="16" xmlns="http://www.w3.org/2000/svg" fill="context-fill" fill-opacity="context-fill-opacity">
  <defs>
    <style>
      .st0 {
        fill: none;
      }

      .st1 {
        clip-path: url(#clippath);
      }
    </style>
    <clipPath id="clippath">
      <path class="st0" d="M2.469.5l13.031,13.031V.5H2.469ZM.5,1.156v14.344h14.344L.5,1.156Z"/>
    </clipPath>
  </defs>
  <g class="st1">
    <path d="M8.234.5l-.144.006c-.997.069-1.809.828-1.944,1.818l-.007.052h-2.355l-.136.006c-.721.07-1.271.676-1.27,1.401v2.122l-.054.006c-1.045.143-1.823,1.037-1.823,2.092l.006.145c.069.997.828,1.809,1.818,1.944l.053.005v2.124l.006.136c.071.721.677,1.27,1.402,1.269h1.888l.006.052c.144,1.044,1.036,1.822,2.091,1.822l.144-.006c.997-.069,1.809-.828,1.944-1.819l.006-.049h2.359c.777,0,1.406-.63,1.406-1.406l-.002-3.05-1.641.002-.115-.006c-.6-.058-1.058-.562-1.057-1.165l.006-.115c.058-.6.563-1.058,1.166-1.057l1.641-.003.002-3.043-.008-.135c-.07-.72-.675-1.27-1.399-1.27h-1.892l-.004-.053c-.144-1.045-1.036-1.823-2.091-1.823ZM8.234,1.438c.647,0,1.172.525,1.172,1.172v.703l2.814.002.084.007c.223.041.384.235.384.461v2.106l-.705.002c-1.098,0-2.012.843-2.102,1.937l-.007.154c0,1.119.847,2.032,1.937,2.121l.154.008.724-.002v2.113c0,.259-.21.469-.469.469l-3.283-.002.002.705c0,.647-.526,1.171-1.173,1.171-.647,0-1.171-.526-1.171-1.173l-.002-.703-2.811.002c-.259,0-.469-.21-.469-.469l-.002-3.049-.705.002c-.647,0-1.171-.526-1.171-1.173,0-.647.526-1.171,1.173-1.171l.703-.002.002-3.045c0-.259.21-.469.469-.469l3.279-.002v-.703c0-.647.525-1.172,1.172-1.172Z"/>
  </g>
  <path d="M.969.5c-.124,0-.244.049-.332.137-.183.183-.183.48,0,.663l14.062,14.062c.183.183.48.183.663,0,.183-.183.183-.48,0-.663L1.3.637c-.088-.088-.207-.137-.332-.137h0Z"/>
</svg>