<svg width="16" height="16" xmlns="http://www.w3.org/2000/svg" fill="context-fill" fill-opacity="context-fill-opacity">
  <path d="M8.429,2c-.237,0-.429.192-.429.429l.007.077c.037.204.215.351.422.351h4.109L2.859,12.537v-4.109l-.007-.077c-.042-.233-.265-.387-.498-.345-.204.037-.352.215-.352.423l.002,5.159v.007c0,.023.004.046.009.069l.005.02.025.07.034.064.026.032.051.051.047.034.066.034.088.026.058.006h5.161l.077-.006c.204-.038.352-.215.351-.423l-.006-.077c-.038-.204-.215-.352-.423-.351H3.463L13.143,3.463v4.111l.007.077c.042.233.265.387.498.345.204-.037.352-.215.352-.423V2.43l-.002-.038-.011-.072-.027-.071-.035-.063-.026-.032-.051-.051-.047-.034-.065-.034-.054-.017-.074-.014s-5.179-.003-5.179-.003ZM2,13.6v.015l.003.026s-.003-.041-.003-.041Z"/>
</svg>