<svg width="16" height="16" xmlns="http://www.w3.org/2000/svg" fill="context-fill" fill-opacity="context-fill-opacity">
  <path d="M8.5,1c-.276,0-.5.224-.5.5l.008.09c.043.238.251.41.492.41h4.794L2.002,13.293v-4.794l-.008-.09c-.049-.272-.309-.452-.581-.403-.238.043-.411.251-.411.493l.002,6.019v.008c.001.027.005.054.01.08l.006.023.029.082.04.075.03.037.06.06.055.04.077.04.103.03.068.007h6.021l.09-.007c.238-.044.411-.251.41-.493l-.007-.09c-.044-.238-.251-.411-.493-.41H2.707L13.999,2.707v4.796l.008.09c.049.272.309.452.581.403.238-.043.411-.251.411-.493V1.502l-.002-.044-.013-.084-.031-.083-.041-.074-.03-.037-.06-.06-.055-.04-.076-.04-.063-.02-.086-.016-6.042-.004ZM1,14.533v.018l.004.03-.004-.048Z"/>
</svg>