<svg width="16" height="16" xmlns="http://www.w3.org/2000/svg" fill="context-fill" fill-opacity="context-fill-opacity">
  <path d="M14.421,1.15c-.113,0-.222.045-.302.125l-4.406,4.406v-3.247l-.006-.077c-.039-.233-.26-.39-.493-.351-.208.035-.36.217-.357.428l.002,4.296v.007c.001.023.004.046.009.068l.003.021.019.053.025.051.037.053.032.035.027.026.047.033.065.034.089.026.057.006h4.297l.077-.007c.203-.037.351-.214.351-.421l-.007-.077c-.037-.203-.214-.351-.421-.351h-3.249L14.724,1.881l.051-.059c.134-.195.085-.462-.11-.597-.072-.049-.156-.076-.243-.076ZM8.858,6.737v.015l.003.026-.003-.041ZM2.436,8.856l-.077.007c-.203.037-.351.214-.351.421l.007.077c.037.203.214.351.421.351h3.247L1.278,14.118l-.051.058c-.135.194-.088.462.107.597.171.119.402.098.549-.049l4.405-4.409v3.25l.007.077c.042.233.265.387.497.345.204-.037.352-.215.352-.422v-4.281l-.007-.077c-.037-.203-.214-.351-.421-.351H2.436Z"/>
</svg>