<svg width="16" height="16" xmlns="http://www.w3.org/2000/svg" fill="context-fill" fill-opacity="context-fill-opacity">
  <defs>
    <style>
      .st0 {
        fill: none;
      }

      .st1 {
        clip-path: url(#clippath);
      }
    </style>
    <clipPath id="clippath">
      <path class="st0" d="M2.469.5l13.031,13.031V.5H2.469ZM.5,1.156v14.344h14.344L.5,1.156Z"/>
    </clipPath>
  </defs>
  <g class="st1">
    <path d="M8,.5c-3.627.004-6.564,2.947-6.56,6.574.002,1.738.692,3.404,1.92,4.634l1.425,1.404,1.915,1.862.125.11c.727.589,1.791.553,2.475-.11l2.285-2.223,1.057-1.043c2.563-2.566,2.56-6.724-.006-9.287-1.23-1.228-2.897-1.919-4.635-1.92ZM8,1.435c1.493-.002,2.925.591,3.979,1.648,2.132,2.134,2.205,5.569.165,7.792l-.165.173-1.237,1.223-2.091,2.033-.088.075c-.333.251-.791.251-1.124,0l-.088-.075-2.794-2.724-.534-.532-.165-.172c-2.041-2.222-1.968-5.658.165-7.792,1.054-1.057,2.486-1.65,3.979-1.648h0ZM8,4.25c-1.553,0-2.812,1.259-2.812,2.812s1.259,2.812,2.812,2.812,2.812-1.259,2.812-2.812-1.259-2.812-2.812-2.812ZM8,5.187c1.036,0,1.875.839,1.875,1.875s-.839,1.875-1.875,1.875-1.875-.839-1.875-1.875.839-1.875,1.875-1.875Z"/>
  </g>
  <path d="M.969.5c-.124,0-.244.049-.332.137-.183.183-.183.48,0,.663l14.062,14.062c.183.183.48.183.663,0,.183-.183.183-.48,0-.663L1.3.637c-.088-.088-.207-.137-.332-.137h0Z"/>
</svg>