<svg width="16" height="16" xmlns="http://www.w3.org/2000/svg" fill="context-fill" fill-opacity="context-fill-opacity">
  <path d="M8.0185.5c1.0903.002,2.167.2426,3.1544.705,3.4272,1.6034,5.1255,5.5071,3.9624,9.1079-1.1691,3.5984-4.8335,5.7639-8.5492,5.0522C2.8702,14.6499.2681,11.2795.5164,7.5032c.0166-.2584.2394-.4544.4977-.4378,0,0,0,0,0,0,.2583.0165.4544.2393.4379.4977,0,.0007,0,.0014-.0001.002-.2219,3.3053,2.0561,6.2569,5.3095,6.8794,3.2525.6275,6.4621-1.2699,7.4806-4.4222,1.0239-3.1502-.4627-6.5693-3.4647-7.9688-2.8928-1.3533-6.3397-.4257-8.163,2.1966h3.0428c.2589,0,.4687.2099.4687.4688s-.2098.4688-.4687.4688H1.9075c-.2589,0-.4687-.2099-.4687-.4688V.9688c0-.2589.2098-.4688.4687-.4688s.4687.2099.4687.4688v2.0766C3.8041,1.4252,5.86.4979,8.0194.5h-.0009Z"/>
  <path d="M7.531,4.25c-.2589,0-.4687.2099-.4687.4688v4.2188c0,.2589.2098.4688.4687.4688h2.8122c.2589,0,.4687-.2099.4687-.4688s-.2098-.4688-.4687-.4688h-2.3435v-3.75c0-.2589-.2098-.4688-.4687-.4688Z"/>
</svg>