<svg width="16" height="16" xmlns="http://www.w3.org/2000/svg" fill="context-fill" fill-opacity="context-fill-opacity">

  <path d="M3.3276,1.5c-1.023,0-1.8619.8379-1.8619,1.8621v2.9556c.2912-.1022.6036-.162.9314-.162v-2.7936c0-.5245.4069-.9315.9314-.9315h2.7934v1.3963c0,.7666.6306,1.3963,1.3962,1.3963h6.0514v7.4482c0,.5245-.4069.9315-.9314.9315h-2.7934c0,.3278-.0598.6393-.162.9315h2.9554c1.024,0,1.8619-.8379,1.8619-1.8621V3.3621c0-1.0231-.8379-1.8621-1.8619-1.8621,0,0-9.3105,0-9.3105,0ZM7.0514,2.4315h5.5857c.5245,0,.9314.407.9314.9315v.9315h-6.0514c-.2536.0038-.4619-.1987-.4658-.4523v-1.4098h0v-.0009h.0001Z"/>
  <g fill="none" stroke="context-fill" stroke-opacity="context-fill-opacity" stroke-width="1.001">
    <rect class="st0" x="1" y="7.5518" width="7.4466" height="7.4482" rx="1.5" ry="1.5"/>
    <path class="st0" d="M1.4658,14.5343l2.6005-2.6007c.3635-.3636.9527-.3636,1.3161,0l2.6005,2.6007"/>
  </g>
  <circle cx="6.3534" cy="9.6463" r=".6982"/>
</svg>