<svg width="16" height="16" xmlns="http://www.w3.org/2000/svg" fill="context-fill" fill-opacity="context-fill-opacity">
  <path d="M3.802,1.001c-1.546,0-2.8,1.254-2.8,2.8v7.466c0,1.546,1.254,2.8,2.8,2.8h1.872c.005-.11.021-.218.047-.325l.153-.609h-2.072c-.331,0-.657-.088-.944-.255l4.35-4.276c.181-.18.473-.18.653,0l.681.668.66-.66-.688-.674c-.545-.535-1.417-.535-1.962,0l-4.359,4.282c-.171-.288-.26-.617-.259-.952V3.801c0-1.031.836-1.867,1.867-1.867h7.466c1.031,0,1.867.836,1.867,1.867v1.872c.041-.002.081-.006.121-.006h.003c.285,0,.556.048.809.13v-1.997c0-1.546-1.254-2.8-2.8-2.8H3.802ZM9.869,3.801c-1.867,0-1.867,2.8,0,2.8s1.867-2.8,0-2.8ZM9.869,4.734c.623,0,.623.933,0,.933s-.623-.933,0-.933Z"/>
  <path d="M13.257,6.601c-.446,0-.893.168-1.234.511l-4.506,4.508c-.263.263-.449.592-.539.952l-.35,1.398c-.111.445.159.895.604,1.006.132.033.27.033.402,0l1.398-.35c.36-.09.689-.277.952-.539l4.506-4.506c.68-.684.677-1.79-.007-2.471-.326-.324-.766-.507-1.226-.508ZM13.255,7.536c.399.002.626.209.747.501.121.293.108.6-.175.884l-4.504,4.504c-.143.143-.323.245-.519.294l-1.228.31.308-1.232h-.003c.049-.196.152-.376.295-.52l4.506-4.508c.152-.152.358-.236.573-.233ZM7.407,14.069l.002.002h-.004s.002-.002.002-.002Z"/>
</svg>