<svg width="16" height="16" xmlns="http://www.w3.org/2000/svg" fill="context-fill" fill-opacity="context-fill-opacity">
  <path d="M2.75,1.875c-.966,0-1.75.784-1.75,1.75v6.125c0,.966.784,1.75,1.75,1.75h4.375v-.875H2.75c-.483,0-.875-.392-.875-.875V3.625c0-.483.392-.875.875-.875h10.5c.483,0,.875.392.875.875v6.125c0,.445-.333.819-.774.87l.39.389c.099.1.179.212.241.333.621-.286,1.019-.908,1.019-1.592V3.625c0-.966-.784-1.75-1.75-1.75H2.75ZM8.523,7.133c-.237-.047-.467.106-.515.343-.006.028-.008.057-.008.085v6.125c0,.242.195.438.437.438.143,0,.277-.07.359-.187l1.374-1.965,2.576.396c.238.039.462-.123.501-.361.023-.14-.024-.281-.125-.381l-4.375-4.375c-.061-.061-.139-.102-.224-.119ZM8.875,8.618l2.683,2.683-1.522-.234c-.165-.026-.33.045-.425.181l-.735,1.051v-3.681Z"/>
</svg>