<svg width="16" height="16" xmlns="http://www.w3.org/2000/svg" fill="context-fill" fill-opacity="context-fill-opacity">
  <path d="M2.313,1c-.724,0-1.312.587-1.313,1.311v11.358c0,.724.588,1.309,1.313,1.309h.875c.725,0,1.311-.585,1.311-1.309V2.311c0-.724-.586-1.311-1.311-1.311h-.875ZM6.686,1c-.724,0-1.312.587-1.313,1.311v11.358c0,.724.588,1.309,1.313,1.309h.875c.725,0,1.311-.585,1.311-1.309V2.311c0-.724-.586-1.311-1.311-1.311h-.875ZM2.313,1.873h.875c.242,0,.436.196.436.438v11.358c0,.24-.194.435-.434.436,0,0-.001,0-.002,0h-.875c-.241,0-.437-.195-.438-.436h0V2.311c0-.242.196-.438.438-.438ZM6.686,1.873h.875c.242,0,.438.196.438.438v11.358c0,.241-.196.436-.438.436h-.875c-.241,0-.437-.195-.438-.436h0V2.311c0-.242.196-.438.438-.438ZM11.773,3.62c-.137-.005-.274.012-.405.05l-.651.184c-.66.186-1.065.85-.928,1.523l1.754,8.575c.145.71.838,1.167,1.548,1.022.02-.004.04-.009.06-.014l.861-.219c.691-.176,1.115-.871.956-1.564l-1.962-8.54c-.133-.579-.639-.996-1.232-1.017ZM11.696,4.495c.215-.014.408.129.457.339l1.962,8.54c.053.231-.088.46-.319.519l-.861.221c-.234.06-.472-.082-.532-.316-.002-.007-.003-.013-.005-.02l-1.754-8.575c-.046-.224.089-.445.309-.508l.653-.184c.029-.008.059-.014.089-.016Z"/>
</svg>