<svg width="16" height="16" xmlns="http://www.w3.org/2000/svg" fill="context-fill" fill-opacity="context-fill-opacity">
  <path d="M6.25,4.5c.242,0,.438.195.438.437,0,.212-.151.394-.36.431l-.079.007h-1.75c-1.45-.004-2.628,1.169-2.631,2.618-.003,1.388,1.074,2.538,2.459,2.626l.172.005h1.75c.242,0,.438.195.438.437,0,.212-.151.394-.36.431l-.079.007h-1.75c-1.933,0-3.5-1.567-3.5-3.5,0-1.858,1.453-3.393,3.308-3.495l.192-.005h1.749ZM11.499,4.5c1.933,0,3.5,1.566,3.501,3.499,0,1.859-1.452,3.394-3.308,3.495l-.192.005h-1.75c-.242,0-.438-.195-.438-.437,0-.212.151-.394.36-.431l.079-.007h1.75c1.45.004,2.628-1.168,2.632-2.617.004-1.388-1.074-2.539-2.459-2.627l-.173-.005h-1.75c-.242,0-.438-.195-.438-.437,0-.212.151-.394.36-.431l.079-.007h1.75ZM4.5,7.563h7c.242,0,.438.195.438.437,0,.212-.151.394-.36.431l-.079.007h-7c-.242,0-.438-.195-.438-.437,0-.212.151-.394.36-.431l.079-.007h7-7Z"/>
</svg>