<svg width="16" height="16" xmlns="http://www.w3.org/2000/svg" fill="context-fill" fill-opacity="context-fill-opacity">
  <path d="M3.188,2.312c-1.208,0-2.188.979-2.188,2.188v7c0,1.208.979,2.188,2.188,2.188h9.625c1.208,0,2.188-.979,2.188-2.188v-7c0-1.208-.979-2.188-2.188-2.188H3.188ZM3.188,3.188h9.625c.725,0,1.312.588,1.312,1.312v.262l-6.125,3.605L1.875,4.765v-.265c0-.725.588-1.312,1.312-1.312ZM14.125,5.778v5.722c0,.725-.588,1.312-1.312,1.312H3.188c-.725,0-1.312-.588-1.312-1.312v-5.72l5.903,3.473.072.032c.123.046.26.034.373-.032l5.903-3.475Z"/>
</svg>