<svg width="16" height="16" xmlns="http://www.w3.org/2000/svg" fill="context-fill" fill-opacity="context-fill-opacity">
  <path d="M9.712,1.441c-.241.021-.42.233-.399.474.006.076.033.148.076.211l.052.06,1.449,1.449c-.087-.005-.176-.009-.265-.009h-5.249l-.19.003c-2.413.104-4.286,2.144-4.182,4.557.04.928.374,1.82.954,2.545.145.193.42.232.613.087.193-.145.232-.42.087-.613h0c-1.218-1.5-.989-3.704.511-4.922.624-.506,1.403-.783,2.206-.782h5.25l.125.002.122.007-1.432,1.431-.051.06c-.103.15-.103.348,0,.499l.051.06.06.051c.149.103.35.103.499,0l.06-.051,2.187-2.187.051-.06c.103-.15.103-.348,0-.499l-.051-.06-2.187-2.187-.06-.051c-.084-.058-.185-.084-.287-.075h-.002ZM13.686,5.088c-.242,0-.437.196-.437.438,0,.099.034.195.096.272,1.216,1.502.983,3.706-.519,4.921-.623.504-1.4.779-2.201.779h-5.249l-.125-.002-.122-.007,1.432-1.431.051-.06c.137-.2.086-.472-.114-.609-.173-.119-.407-.098-.556.05l-2.187,2.187-.051.06c-.12.174-.099.409.051.559l2.187,2.187.06.051c.174.12.409.099.559-.051l.051-.06c.12-.174.099-.409-.051-.559l-1.449-1.449c.087.005.176.009.265.009h5.249l.19-.003c2.413-.104,4.285-2.145,4.181-4.558-.04-.934-.379-1.83-.966-2.558l-.016-.018-.058-.055c-.077-.06-.172-.092-.27-.092Z"/>
</svg>