<svg width="16" height="16" xmlns="http://www.w3.org/2000/svg" fill="context-fill" fill-opacity="context-fill-opacity">
  <path d="M9.2303,1.1338c-.1709.0265-.33.1041-.4557.223l-3.3297,3.0901c-.0796.0737-.1837.1149-.2917.1139h-2.2394c-.7121,0-1.2887.5776-1.2887,1.2887h0v4.3002c0,.7121.5775,1.2887,1.2887,1.2887h2.2404c.108,0,.2131.0413.2917.1149l3.3277,3.0901c.55.5108,1.4439.1208,1.4439-.6286V1.9864c0-.5628-.5039-.9233-.9871-.8526ZM9.3589,1.9864v12.0285l-3.3287-3.0901c-.2387-.221-.551-.3438-.8761-.3438h-2.2404c-.2377,0-.4292-.1925-.4292-.4292v-4.3002c0-.2377.1925-.4292.4292-.4292h2.2404c.3251,0,.6375-.1228.8761-.3448l3.3287-3.0901h0v-.001ZM13.3291,3.2712c-.2377-.0118-.44.1719-.4518.4106-.0049.112.0334.222.108.3065,2.042,2.2857,2.042,5.7392,0,8.0249-.1581.1778-.1424.4499.0344.608.1758.1581.4469.1424.605-.0344,2.3337-2.6128,2.3337-6.5604,0-9.1731-.0756-.0855-.1817-.1365-.2956-.1424ZM12.1691,5.4242c-.2357.0295-.4027.2446-.3732.4793.0069.057.0255.112.054.1611.6915,1.1973.6915,2.6727,0,3.87-.1139.2092-.0363.4705.1719.5844.2014.11.4548.0422.5736-.1542.8437-1.4635.8427-3.2659-.002-4.7285-.0855-.1493-.2534-.2338-.4243-.2122h0Z"/>
</svg>