<svg width="16" height="16" xmlns="http://www.w3.org/2000/svg" fill="context-fill" fill-opacity="context-fill-opacity">
  <path d="M7.125,5.812c0-.242-.196-.438-.438-.438s-.438.196-.438.438v4.375c0,.242.196.438.438.438s.438-.196.438-.438v-4.375ZM9.75,5.812c0-.242-.196-.438-.438-.438s-.438.196-.438.438v4.375c0,.242.196.438.438.438s.438-.196.438-.438v-4.375ZM8,1c-3.866,0-7,3.134-7,7s3.134,7,7,7,7-3.134,7-7S11.866,1,8,1ZM1.875,8c0-3.383,2.742-6.125,6.125-6.125s6.125,2.742,6.125,6.125-2.742,6.125-6.125,6.125S1.875,11.383,1.875,8Z"/>
</svg>
