<svg width="16" height="16" xmlns="http://www.w3.org/2000/svg" fill="context-fill" fill-opacity="context-fill-opacity">
  <path d="M7.234,5.536c-.314-.181-.715-.074-.896.24-.058.1-.088.213-.088.329v3.791c0,.362.293.656.656.657.115,0,.229-.03.329-.088l3.609-2.085c.209-.121.281-.388.16-.598-.038-.066-.094-.122-.16-.16l-3.609-2.086ZM1,8c0-3.866,3.134-7,7-7s7,3.134,7,7-3.134,7-7,7S1,11.866,1,8ZM8,1.875c-3.383,0-6.125,2.742-6.125,6.125s2.742,6.125,6.125,6.125,6.125-2.742,6.125-6.125S11.383,1.875,8,1.875Z"/>
</svg>