<svg width="16" height="16" xmlns="http://www.w3.org/2000/svg" fill="context-fill" fill-opacity="context-fill-opacity">
  <path d="M8.006,3.188c-3.111.002-5.893,1.936-6.978,4.851-.085.226.03.478.257.563,0,0,0,0,.001,0,.226.084.478-.031.563-.257.087-.238.203-.46.316-.682l1.687.939c.211.117.478.041.595-.171,0,0,0,0,0,0,.117-.211.041-.478-.171-.595,0,0,0,0,0,0l-1.66-.921c1.133-1.645,2.955-2.683,4.948-2.817v2.153c0,.242.196.437.437.437s.437-.196.437-.437v-2.152c.542.036,1.076.122,1.581.284l.569-.705s.001-.001.002-.002c-.825-.316-1.7-.481-2.584-.487ZM11.608,4.063c-.132,0-.256.06-.339.163l-4.536,5.633c-.423.525-.633,1.267-.318,1.942.311.666,1.006,1.067,1.738,1.004.738-.065,1.305-.602,1.529-1.262l2.341-6.902c.077-.229-.046-.477-.274-.554-.045-.015-.093-.023-.141-.023ZM12.828,4.994l-.301.884c.324.31.614.656.871,1.029l-1.673.93c-.211.117-.288.383-.171.595h0c.117.212.383.288.595.171h0s1.7-.945,1.7-.945c.112.221.214.451.302.689.084.226.336.342.563.257.226-.084.342-.335.258-.562-.443-1.182-1.182-2.231-2.144-3.047ZM10.403,6.697l-1.549,4.566c-.131.384-.416.64-.776.671-.367.033-.715-.168-.87-.502-.151-.324-.065-.688.205-1.022l2.99-3.713Z"/>
</svg>