<svg width="16" height="16" xmlns="http://www.w3.org/2000/svg" fill="context-fill" fill-opacity="context-fill-opacity">
  <path d="M3.625,1.875c-1.45,0-2.625,1.175-2.625,2.625v7c0,1.45,1.175,2.625,2.625,2.625h8.75c1.45,0,2.625-1.175,2.625-2.625v-7c0-1.45-1.175-2.625-2.625-2.625H3.625ZM3.625,2.75h8.75c.966,0,1.75.784,1.75,1.75v7c0,.966-.784,1.75-1.75,1.75H3.625c-.966,0-1.75-.784-1.75-1.75v-7c0-.966.784-1.75,1.75-1.75ZM7.125,7.125c-.483,0-.875.392-.875.875v3.5c0,.483.392.875.875.875h5.25c.483,0,.875-.392.875-.875v-3.5c0-.483-.392-.875-.875-.875h-5.25ZM7.125,8h5.25v3.5h-1.131l-2.059-2.06c-.171-.171-.448-.171-.619,0,0,0,0,0,0,0l-1.44,1.441v-2.881ZM11.062,8.875c-.242,0-.438.196-.438.438s.196.438.438.438.438-.196.438-.438-.196-.438-.438-.438ZM8.875,10.369l1.131,1.131h-2.263l1.131-1.131Z"/>
</svg>