<svg width="16" height="16" xmlns="http://www.w3.org/2000/svg" fill="context-fill" fill-opacity="context-fill-opacity">
  <defs>
    <style>
      .st0 {
        fill: none;
      }

      .st1 {
        clip-path: url(#clippath);
      }
    </style>
    <clipPath id="clippath">
      <path class="st0" d="M3.4302,1.126l11.9447,11.9436V1.126H3.4302ZM1.6251,1.7271v13.1477h13.1478L1.6251,1.7271Z"/>
    </clipPath>
  </defs>
  <g class="st1">
    <path d="M9.2307,1.1338c-.1709.0265-.33.1041-.4557.2229l-3.3294,3.0898c-.0796.0737-.1837.1149-.2917.1139h-2.2393c-.712,0-1.2886.5775-1.2886,1.2885h0v4.2997c0,.712.5775,1.2885,1.2886,1.2885h2.2402c.108,0,.2131.0412.2917.1149l3.3275,3.0898c.55.5107,1.4437.1208,1.4437-.6286V1.9863c0-.5628-.5038-.9232-.987-.8525ZM9.3594,1.9863v12.0271l-3.3285-3.0898c-.2387-.221-.551-.3437-.8761-.3437h-2.2402c-.2377,0-.4292-.1925-.4292-.4292v-4.2997c0-.2377.1925-.4292.4292-.4292h2.2402c.3251,0,.6374-.1228.8761-.3447l3.3285-3.0898h0v-.001ZM13.3292,3.2709c-.2377-.0118-.44.1719-.4518.4105-.0049.112.0334.222.108.3064,2.0419,2.2854,2.0419,5.7386,0,8.024-.1581.1778-.1424.4498.0344.6079.1758.1581.4469.1424.605-.0344,2.3336-2.6125,2.3336-6.5596,0-9.1721-.0756-.0854-.1817-.1365-.2956-.1424ZM12.1693,5.4238c-.2357.0295-.4027.2445-.3732.4793.0069.057.0255.112.054.1611.6914,1.1972.6914,2.6724,0,3.8696-.1139.2092-.0363.4704.1719.5844.2013.11.4547.0422.5736-.1542.8437-1.4634.8427-3.2656-.002-4.728-.0854-.1493-.2534-.2337-.4243-.2121h0Z"/>
  </g>
  <path d="M2.0554,1.126c-.1139,0-.2229.0452-.3045.1257-.1679.1679-.1679.44,0,.607l12.8915,12.8904c.1679.1679.44.1679.607,0s.1679-.44,0-.607L2.3589,1.2507c-.0805-.0805-.1905-.1257-.3045-.1257h0l.001.001Z"/>
</svg>