<svg width="16" height="16" xmlns="http://www.w3.org/2000/svg" fill="context-fill" fill-opacity="context-fill-opacity">
  <path d="M8,0c-1.553,0-2.812,1.259-2.812,2.812v4.688c0,1.553,1.259,2.812,2.812,2.812s2.812-1.259,2.812-2.812V2.812c0-1.553-1.259-2.812-2.812-2.812ZM8,.938c1.036,0,1.875.839,1.875,1.875v4.688c0,1.036-.839,1.875-1.875,1.875s-1.875-.839-1.875-1.875V2.812c0-1.036.839-1.875,1.875-1.875ZM3.312,7.031c-.259,0-.469.21-.469.469,0,2.666,2.032,4.893,4.688,5.137v1.895c0,.259.21.469.469.469s.469-.21.469-.469v-1.895c2.655-.243,4.687-2.47,4.688-5.137,0-.259-.21-.469-.469-.469s-.469.21-.469.469c0,2.33-1.889,4.219-4.219,4.219s-4.219-1.889-4.219-4.219c0-.259-.21-.469-.469-.469Z"/>
</svg>