<svg width="16" height="16" xmlns="http://www.w3.org/2000/svg" fill="context-fill" fill-opacity="context-fill-opacity">
  <defs>
    <style>
      .st0 {
        fill: none;
      }

      .st1 {
        clip-path: url(#clippath);
      }
    </style>
    <clipPath id="clippath">
      <path class="st0" d="M2.469,0l13.031,13.031V0H2.469ZM.5.656v14.344h14.344L.5.656Z"/>
    </clipPath>
  </defs>
  <g class="st1">
    <path d="M8,0C6.447,0,5.188,1.259,5.188,2.812v4.688c0,1.553,1.259,2.813,2.813,2.813s2.812-1.259,2.812-2.813V2.812C10.812,1.259,9.553,0,8,0ZM8,.937c1.036,0,1.875.839,1.875,1.875v4.688c0,1.036-.839,1.875-1.875,1.875s-1.875-.839-1.875-1.875V2.812c0-1.036.839-1.875,1.875-1.875ZM3.313,7.031c-.259,0-.469.21-.469.469,0,2.666,2.032,4.893,4.687,5.137v1.895c0,.259.21.469.469.469s.469-.21.469-.469v-1.895c2.655-.243,4.687-2.47,4.687-5.137,0-.259-.21-.469-.469-.469s-.469.21-.469.469c0,2.33-1.889,4.219-4.219,4.219s-4.219-1.889-4.219-4.219c0-.259-.21-.469-.469-.469Z"/>
  </g>
  <path d="M.969,0c-.124,0-.244.049-.332.137-.183.183-.183.48,0,.663l14.062,14.062c.183.183.48.183.663,0,.183-.183.183-.48,0-.663L1.3.137C1.212.049,1.093,0,.968,0h0Z"/>
</svg>