<svg width="16" height="16" xmlns="http://www.w3.org/2000/svg" fill="context-fill" fill-opacity="context-fill-opacity">
  <path d="M1.441,2.75c-.242,0-.438.196-.438.438v9.625c0,.242.196.438.438.438h13.125c.242,0,.438-.196.438-.438V3.188c0-.242-.196-.438-.438-.438H1.441ZM1.878,3.625h12.25v3.5H1.878v-3.5ZM4.25,4.5c-.362.01-.648.311-.639.674s.311.648.674.639c.362-.01.648-.311.639-.674-.009-.349-.29-.629-.639-.639h-.035ZM10.191,4.5c-.242,0-.438.196-.438.438s.196.438.438.438h1.75c.242,0,.438-.196.438-.438s-.196-.438-.438-.438h-1.75ZM6.438,4.502c-.362.01-.648.311-.639.674.01.362.311.648.674.639.362-.01.648-.311.639-.674-.009-.349-.29-.629-.639-.639h-.035ZM1.878,8h1.75v3.062c0,.242.196.438.438.438s.438-.196.438-.438v-3.062h1.75v3.062c0,.242.196.438.438.438s.438-.196.438-.438v-3.062h1.75v3.062c0,.242.196.438.438.438s.438-.196.438-.438v-3.062h1.75v3.062c0,.242.196.438.438.438s.438-.196.438-.438v-3.062h1.75v4.375H1.878v-4.375Z"/>
</svg>