<svg width="16" height="16" xmlns="http://www.w3.org/2000/svg" fill="context-fill" fill-opacity="context-fill-opacity">
  <defs>
    <style>
      .st0 {
        fill: none;
      }

      .st1 {
        clip-path: url(#clippath);
      }
    </style>
    <clipPath id="clippath">
      <path class="st0" d="M2.841.946l12.163,12.256V.946H2.841ZM1.003,1.563v13.491h13.388L1.003,1.563Z"/>
    </clipPath>
  </defs>
  <g class="st1">
    <path d="M1.441,2.75c-.242,0-.438.196-.438.438v9.625c0,.242.196.438.438.438h13.125c.242,0,.438-.196.438-.438V3.188c0-.242-.196-.438-.438-.438H1.441ZM1.878,3.625h12.25v3.5H1.878v-3.5ZM4.25,4.5c-.362.01-.648.311-.639.674s.311.648.674.639c.362-.01.648-.311.639-.674-.009-.349-.29-.629-.639-.639h-.035ZM10.191,4.5c-.242,0-.438.196-.438.438s.196.438.438.438h1.75c.242,0,.438-.196.438-.438s-.196-.438-.438-.438h-1.75ZM6.438,4.502c-.362.01-.648.311-.639.674.01.362.311.648.674.639.362-.01.648-.311.639-.674-.009-.349-.29-.629-.639-.639h-.035ZM1.878,8h1.75v3.062c0,.242.196.438.438.438s.438-.196.438-.438v-3.062h1.75v3.062c0,.242.196.438.438.438s.438-.196.438-.438v-3.062h1.75v3.062c0,.242.196.438.438.438s.438-.196.438-.438v-3.062h1.75v3.062c0,.242.196.438.438.438s.438-.196.438-.438v-3.062h1.75v4.375H1.878v-4.375Z"/>
  </g>
  <path d="M1.441,1c-.116,0-.227.046-.31.128-.171.171-.171.448,0,.618l13.126,13.126c.171.171.448.171.618,0s.171-.448,0-.618L1.75,1.128c-.082-.082-.194-.128-.31-.128h0Z"/>
</svg>