<svg width="16" height="16" xmlns="http://www.w3.org/2000/svg" fill="context-fill" fill-opacity="context-fill-opacity">
  <path d="M10.5,1c-.275-.003-.501.217-.504.492-.002.136.053.267.15.362l2.147,2.146H2.5c-.276,0-.5.224-.5.5s.224.5.5.5h9.793l-2.147,2.146c-.195.195-.195.512,0,.708s.512.195.708,0l3-3c.195-.195.196-.512,0-.707,0,0,0,0,0,0l-3-3c-.094-.094-.221-.146-.354-.146ZM5.5,8c-.133,0-.26.052-.354.146l-3,3c-.195.195-.196.512,0,.707,0,0,0,0,0,0l3,3c.195.195.512.195.708,0s.195-.512,0-.708l-2.147-2.146h9.793c.276,0,.5-.224.5-.5s-.224-.5-.5-.5H3.707l2.147-2.146c.196-.195.196-.512,0-.707-.094-.094-.222-.147-.355-.147Z"/>
</svg>