<svg width="16" height="16" xmlns="http://www.w3.org/2000/svg" fill="context-fill" fill-opacity="context-fill-opacity">
  <path d="M2.867,1c-1.026,0-1.867.84-1.867,1.867v9.333c0,1.026.84,1.867,1.867,1.867h4.009c-.241-.288-.45-.601-.625-.933h-3.383c-.525,0-.933-.408-.933-.933V2.867c0-.525.408-.933.933-.933h2.8v1.4c0,.768.633,1.4,1.4,1.4h6.067v1.491c.334.17.647.378.933.618v-3.976c0-1.026-.84-1.867-1.867-1.867H2.867ZM6.6,1.933h5.6c.525,0,.933.408.933.933v.933h-6.067c-.254.004-.463-.199-.467-.454,0-.004,0-.009,0-.013v-1.4Z"/>
  <path d="M10.8,6.6c-2.32,0-4.2,1.88-4.2,4.2h0c0,2.32,1.88,4.2,4.2,4.2s4.2-1.88,4.2-4.2-1.88-4.2-4.2-4.2h0ZM10.8,8.467c.258,0,.467.209.467.467v1.4h1.4c.258,0,.467.209.467.467s-.209.467-.467.467h-1.4v1.4c0,.258-.209.467-.467.467s-.467-.209-.467-.467v-1.4h-1.4c-.258,0-.467-.209-.467-.467s.209-.467.467-.467h1.4v-1.4c0-.258.209-.467.467-.467Z"/>
</svg>