<svg width="16" height="16" xmlns="http://www.w3.org/2000/svg" fill="context-fill" fill-opacity="context-fill-opacity">
  <path d="M5.875,1c-.556,0-1.052.351-1.237.875h-1.388c-.725,0-1.312.588-1.312,1.312v10.5c0,.725.588,1.312,1.312,1.312h5.113c-.354-.248-.674-.542-.95-.875H3.25c-.242,0-.438-.196-.438-.438V3.188c0-.242.196-.438.438-.438h1.388c.185.524.681.875,1.237.875h2.625c.556,0,1.052-.351,1.237-.875h1.388c.242,0,.438.196.438.438v3.084c.301.027.592.084.875.165v-3.249c0-.725-.588-1.312-1.312-1.312h-1.388c-.185-.524-.681-.875-1.237-.875h-2.625ZM5.875,1.875h2.625c.242,0,.438.196.438.438s-.196.438-.438.438h-2.625c-.242,0-.438-.196-.438-.438s.196-.438.438-.438ZM11.125,7.125c-2.175,0-3.938,1.763-3.938,3.938s1.763,3.938,3.938,3.938,3.938-1.763,3.938-3.938-1.763-3.938-3.938-3.938ZM11.125,8.875c.112,0,.224.043.31.128l1.75,1.75c.081.081.127.191.128.306v.007c0,.114-.046.224-.127.304v.002s-1.751,1.75-1.751,1.75c-.171.171-.448.171-.62,0s-.171-.448,0-.62l1.004-1.003h-2.444c-.242,0-.438-.196-.438-.438s.196-.438.438-.438h2.444l-1.004-1.003c-.171-.171-.171-.448,0-.619.082-.082.194-.129.311-.129Z"/>
</svg>