<svg width="16" height="16" xmlns="http://www.w3.org/2000/svg" fill="context-fill" fill-opacity="context-fill-opacity">
  <path d="M4.25,1.406c-1.042.001-1.961.68-2.269,1.675L.659,7.383c-.105.342-.159.697-.159,1.055v3.047c.004,1.163.946,2.105,2.109,2.109h10.781c1.163-.004,2.105-.946,2.109-2.109v-.806s0-.007,0-.01v-2.23c0-.357-.054-.712-.159-1.055l-1.322-4.301c-.308-.995-1.227-1.674-2.269-1.675h-7.5ZM4.25,2.344h7.5c.632,0,1.186.409,1.372,1.012l1.201,3.904c-.288-.148-.608-.226-.932-.229H2.609c-.336,0-.65.087-.932.229l1.201-3.904c.184-.603.741-1.014,1.372-1.012ZM2.609,7.969h10.781c.652,0,1.172.519,1.172,1.172v2.344c0,.652-.519,1.172-1.172,1.172H2.609c-.652,0-1.172-.519-1.172-1.172v-1.61s0-.008,0-.011v-.723c0-.652.519-1.172,1.172-1.172ZM10.344,9.727c-.324,0-.586.262-.586.586s.262.586.586.586.586-.262.586-.586-.262-.586-.586-.586ZM12.219,9.727c-.324,0-.586.262-.586.586s.262.586.586.586.586-.262.586-.586-.262-.586-.586-.586Z"/>
</svg>