<svg width="16" height="16" xmlns="http://www.w3.org/2000/svg" fill="context-fill" fill-opacity="context-fill-opacity">
  <defs>
    <style>
      .st0 {
        fill: none;
      }

      .st1 {
        clip-path: url(#clippath);
      }
    </style>
    <clipPath id="clippath">
      <path class="st0" d="M2.469.5l13.031,13.032V.5H2.469ZM.5,1.156v14.344h14.344L.5,1.156Z"/>
    </clipPath>
  </defs>
  <g class="st1">
    <path d="M8.469,1.437c-.259,0-.469.21-.469.469s.21.469.469.469h4.493l-5.762,5.762c-.183.183-.183.48,0,.663.183.183.48.183.663,0l5.762-5.762v4.494c0,.259.21.469.469.469s.469-.21.469-.469V1.906c0-.259-.21-.469-.469-.469h-5.625ZM4.25,2.375c-1.55,0-2.813,1.263-2.813,2.813v6.563c0,1.55,1.263,2.813,2.813,2.813h6.562c1.55,0,2.812-1.263,2.812-2.813v-2.344c0-.259-.21-.469-.469-.469s-.469.21-.469.469v2.344c0,1.047-.828,1.875-1.875,1.875h-6.562c-1.047,0-1.875-.828-1.875-1.875v-6.563c0-1.047.828-1.875,1.875-1.875h2.344c.259,0,.469-.21.469-.469s-.21-.469-.469-.469h-2.344Z"/>
  </g>
  <path d="M1.438,1c-.116,0-.228.046-.31.128-.171.171-.171.448,0,.619l13.125,13.125c.171.171.448.171.619,0,.171-.171.171-.448,0-.619L1.747,1.128c-.082-.082-.194-.128-.31-.128h0Z"/>
</svg>