<svg width="16" height="16" xmlns="http://www.w3.org/2000/svg" fill="context-fill" fill-opacity="context-fill-opacity">
  <path d="M4.938,1.875c-.725,0-1.312.588-1.312,1.312v.438h-.438c-1.208,0-2.188.979-2.188,2.188v4.375c0,.725.588,1.312,1.312,1.312h1.312v1.312c0,.725.588,1.312,1.312,1.312h6.125c.725,0,1.312-.588,1.312-1.312v-1.312h1.312c.725,0,1.312-.588,1.312-1.312v-4.375c0-1.208-.979-2.188-2.188-2.188h-.438v-.438c0-.725-.588-1.312-1.312-1.312h-6.125ZM4.938,2.75h6.125c.242,0,.438.196.438.438v.438h-7v-.438c0-.242.196-.438.438-.438ZM3.188,4.5h9.625c.725,0,1.312.588,1.312,1.312v4.375c0,.242-.196.438-.438.438h-1.312v-1.312c0-.725-.588-1.312-1.312-1.312h-6.125c-.725,0-1.312.588-1.312,1.312v1.312h-1.312c-.242,0-.438-.196-.438-.438v-4.375c0-.725.588-1.312,1.312-1.312ZM4.938,8.875h6.125c.242,0,.438.196.438.438v3.5c0,.242-.196.438-.438.438h-6.125c-.242,0-.438-.196-.438-.438v-3.5c0-.242.196-.438.438-.438Z"/>
</svg>