<svg width="16" height="16" xmlns="http://www.w3.org/2000/svg" fill="context-fill" fill-opacity="context-fill-opacity">
  <path d="M7.982.5c-1.091.002-2.167.242-3.154.705C1.4,2.809-.298,6.712.864,10.313c1.169,3.598,4.834,5.764,8.55,5.052,3.716-.716,6.317-4.085,6.07-7.861-.016-.258-.239-.454-.498-.438h0c-.258.016-.454.239-.438.497v.002c.222,3.305-2.056,6.257-5.31,6.88-3.253.628-6.463-1.27-7.481-4.422-1.024-3.15.463-6.569,3.465-7.969,2.893-1.354,6.341-.426,8.164,2.195h-3.043c-.259,0-.468.21-.468.469s.21.469.468.469h3.75c.259,0,.468-.21.468-.469V.969c0-.259-.21-.469-.468-.469s-.468.21-.468.469v2.076c-1.428-1.62-3.484-2.548-5.643-2.546h0Z"/>
</svg>