<svg width="16" height="16" xmlns="http://www.w3.org/2000/svg" fill="context-fill" fill-opacity="context-fill-opacity">
  <path d="M7.983,1c-1.018.002-2.023.226-2.944.658C1.84,3.155.255,6.798,1.34,10.159c1.091,3.358,4.512,5.38,7.98,4.715,3.468-.668,5.896-3.813,5.665-7.337-.015-.241-.223-.424-.465-.409,0,0,0,0,0,0-.241.015-.424.223-.409.464,0,0,0,.001,0,.002.207,3.085-1.919,5.84-4.956,6.421-3.036.586-6.032-1.185-6.982-4.127-.956-2.94.432-6.131,3.234-7.438,2.7-1.264,5.918-.398,7.62,2.049h-2.84c-.242,0-.437.196-.437.438s.196.438.437.438h3.5c.242,0,.437-.196.437-.438V1.438c0-.242-.196-.438-.437-.438s-.437.196-.437.438v1.938c-1.333-1.512-3.252-2.378-5.267-2.376h0Z"/>
</svg>
