<svg width="16" height="16" viewBox="0 0 16 16" xmlns="http://www.w3.org/2000/svg" fill="context-fill" fill-opacity="context-fill-opacity">
  <path d="M2.867,1c-1.031,0-1.867.836-1.867,1.867v9.332c0,1.031.836,1.867,1.867,1.867h2.804c.007-.109.024-.218.05-.324l.151-.609h-2.072v-4.2c0-.258.209-.467.467-.467h5.081l.934-.932h-6.015c-.773,0-1.4.627-1.4,1.4,0,0,0,0,0,0v4.2c-.516,0-.934-.418-.934-.933V2.867c0-.515.418-.933.934-.933h.934v2.333c0,.773.627,1.4,1.4,1.4h3.734c.773,0,1.4-.627,1.4-1.4V1.933h.353c.248,0,.485.099.66.274l1.513,1.512c.175.175.274.413.274.661v1.29c.316-.015.632.026.934.121v-1.413c0-.495-.197-.97-.547-1.32l-1.512-1.513c-.351-.35-.826-.547-1.322-.546H2.867ZM4.734,1.933h4.668v2.333c0,.258-.209.467-.467.467h-3.734c-.258,0-.467-.209-.467-.467V1.933ZM13.257,6.6c-.446,0-.893.168-1.234.51l-4.507,4.508c-.263.263-.449.592-.54.952l-.35,1.399c-.111.445.159.895.604,1.006.132.033.27.033.402,0l1.398-.35c.361-.09.69-.277.953-.539l4.507-4.506c.681-.684.677-1.791-.007-2.471-.326-.324-.767-.507-1.227-.508Z"/>
</svg>