<svg width="16" height="16" xmlns="http://www.w3.org/2000/svg" fill="context-fill" fill-opacity="context-fill-opacity">
  <defs>
    <style>
      .st0 {
        fill: none;
      }

      .st1 {
        clip-path: url(#clippath);
      }
    </style>
    <clipPath id="clippath">
      <path class="st0" d="M2.469.5l13.031,13.031V.5H2.469ZM.5,1.156v14.344h14.343L.5,1.156Z"/>
    </clipPath>
  </defs>
  <g class="st1">
    <path d="M2.375,2.375c-1.036,0-1.875.839-1.875,1.875v7.5c0,1.036.839,1.875,1.875,1.875h11.25c1.036,0,1.875-.839,1.875-1.875v-7.5c0-1.036-.839-1.875-1.875-1.875H2.375ZM2.375,3.312h11.25c.518,0,.937.42.937.937v7.5c0,.518-.42.937-.937.937H2.375c-.518,0-.937-.42-.937-.937v-7.5c0-.518.42-.937.937-.937ZM8,4.25c-.124,0-.243.049-.331.137l-2.344,2.344c-.191.175-.203.472-.028.662s.472.203.662.028c.01-.009.019-.018.027-.027l1.544-1.543v5.431c0,.259.21.469.469.469s.469-.21.469-.469v-5.431l1.543,1.543c.18.186.477.191.663.012s.191-.477.012-.663c-.004-.004-.008-.008-.012-.012l-2.344-2.344c-.088-.088-.207-.137-.331-.137Z"/>
  </g>
  <path d="M.969.5c-.124,0-.244.049-.332.137-.183.183-.183.48,0,.663l14.062,14.062c.183.183.48.183.663,0,.183-.183.183-.48,0-.663L1.3.637c-.088-.088-.207-.137-.332-.137h0Z"/>
</svg>