<svg width="16" height="16" xmlns="http://www.w3.org/2000/svg" fill="context-fill" fill-opacity="context-fill-opacity">
  <path d="M2.75,1.871c-.966,0-1.75.783-1.75,1.75v.437c0,.242.196.437.437.437s.437-.196.437-.437v-.437c0-.483.392-.875.875-.875h.437c.242,0,.437-.196.437-.437s-.196-.437-.437-.437h-.437ZM4.937,1.871c-.242,0-.437.196-.437.437s.196.437.437.437h2.187c.242,0,.437-.196.437-.437s-.196-.437-.437-.437h-2.187ZM8.873,1.871c-.242,0-.437.196-.437.437s.196.437.437.437h2.187c.242,0,.437-.196.437-.437s-.196-.437-.437-.437h-2.187ZM12.81,1.871c-.242,0-.437.196-.437.437s.196.437.437.437h.437c.483,0,.875.392.875.875v.437c0,.242.196.437.437.437s.437-.196.437-.437v-.437c0-.966-.783-1.75-1.75-1.75h-.437ZM1.437,5.374c-.242,0-.437.196-.437.437v1.75c0,.242.196.437.437.437s.437-.196.437-.437v-1.75c0-.242-.196-.437-.437-.437ZM14.559,5.374c-.242,0-.437.196-.437.437v1.75c0,.242.196.437.437.437s.437-.196.437-.437v-1.75c0-.242-.196-.437-.437-.437ZM5.811,5.377c-.24-.004-.438.188-.442.428-.001.089.025.176.074.25l2.028,3.044-1.083,1.622c-.914-.314-1.909.172-2.223,1.086s.172,1.909,1.086,2.223c.914.314,1.909-.172,2.223-1.086.207-.602.071-1.268-.355-1.741l.879-1.317.882,1.324c-.645.72-.584,1.826.135,2.471.72.645,1.826.584,2.471-.135.645-.72.584-1.826-.135-2.471-.474-.425-1.141-.559-1.743-.35l-1.083-1.627.002-.003-.527-.787-.002.002-1.825-2.735c-.081-.122-.216-.195-.362-.197h0ZM10.185,5.377c-.146.002-.282.075-.362.197l-1.296,1.945.525.789,1.502-2.252c.135-.199.083-.469-.116-.604-.074-.05-.162-.077-.252-.075h0ZM1.441,8.877c-.242,0-.437.196-.437.437v.437c0,.966.783,1.75,1.75,1.75h.219c.242,0,.437-.196.437-.437s-.196-.437-.437-.437h-.219c-.483,0-.875-.392-.875-.875v-.437c0-.242-.196-.437-.437-.437ZM14.563,8.877c-.242,0-.437.196-.437.437v.437c0,.483-.392.875-.875.875h-.22c-.242,0-.437.196-.437.437s.196.437.437.437h.22c.966,0,1.75-.783,1.75-1.75v-.437c0-.242-.196-.437-.437-.437ZM5.815,11.497c.483,0,.875.392.875.875s-.392.875-.875.875-.875-.392-.875-.875.392-.875.875-.875ZM10.189,11.497c.483,0,.875.392.875.875s-.392.875-.875.875-.875-.392-.875-.875.392-.875.875-.875Z"/>
</svg>