<svg width="16" height="16" xmlns="http://www.w3.org/2000/svg" fill="context-fill" fill-opacity="context-fill-opacity">
  <g id="_图层_2">
    <path d="M10.727,10.02c.2612-.3137.4744-.65.6547-.9982-.2452.037-.4904.0752-.746.0752-.149,0-.2892-.0311-.4349-.0438-.812,1.1745-2.1649,1.9468-3.7008,1.9468-2.4853,0-4.5-2.0147-4.5-4.5,0-2.3441,1.7989-4.2472,4.0879-4.4584.1675-.3698.3862-.707.6345-1.0222-.0746-.0031-.1474-.0193-.2224-.0193C3.4624,1,1,3.4624,1,6.5s2.4624,5.5,5.5,5.5c1.2864.002,2.5324-.4487,3.52-1.273l4.127,4.127.0681.059c.227.1582.5392.1024.6974-.1246.139-.1994.1147-.4699-.0575-.6414l-4.128-4.127Z"/>
    <path d="M10.6357.0061C8.3763.0061,6.5448,1.8376,6.5448,4.097s1.8315,4.0909,4.0909,4.0909,4.0909-1.8316,4.0909-4.0909S12.895.0061,10.6357.0061ZM12.4537,4.5516h-1.3632v1.3632c0,.2512-.2035.4547-.4547.4547s-.4547-.2035-.4547-.4547v-1.3632h-1.3632c-.2512,0-.4547-.2035-.4547-.4547s.2035-.4547.4547-.4547h1.3632v-1.3632c0-.2512.2035-.4547.4547-.4547s.4547.2035.4547.4547v1.3632h1.3632c.2512,0,.4547.2035.4547.4547s-.2035.4547-.4547.4547Z"/>
  </g>
</svg>