<svg width="16" height="16" xmlns="http://www.w3.org/2000/svg" fill="context-fill" fill-opacity="context-fill-opacity">
  <path d="M8,.972c-.478,0-.958.244-1.223.732L.675,12.934c-.512.942.161,2.094,1.223,2.094h12.204c1.061,0,1.734-1.153,1.223-2.094L9.223,1.704c-.24-.452-.711-.734-1.223-.732ZM8,4.722c.519,0,.937.418.937.937v3.749c0,.519-.418.937-.937.937s-.937-.418-.937-.937v-3.749c0-.519.418-.937.937-.937ZM8,11.283c.519,0,.937.418.937.937s-.418.937-.937.937-.937-.418-.937-.937.418-.937.937-.937Z"/>
</svg>