<svg width="16" height="16" xmlns="http://www.w3.org/2000/svg" fill="context-fill" fill-opacity="context-fill-opacity">
  <path d="M3.188,1.438c-.725,0-1.312.588-1.312,1.312v1.312h.875v-1.312c0-.242.196-.438.438-.438h9.625c.242,0,.438.196.438.438v6.125c0,.242-.196.438-.438.438h-4.812v.875h4.812c.725,0,1.312-.588,1.312-1.312V2.75c0-.725-.588-1.312-1.312-1.312H3.188ZM2.312,4.938c-.725,0-1.312.588-1.312,1.312v7c0,.725.588,1.312,1.312,1.312h3.5c.725,0,1.312-.588,1.312-1.312h0v-7c0-.725-.588-1.312-1.312-1.312h-3.5ZM2.312,5.812h3.5c.242,0,.438.196.438.438v7c0,.242-.196.438-.438.438h-3.5c-.242,0-.438-.196-.438-.438v-7c0-.242.196-.438.438-.438ZM8,11.062v.875h6.562c.242,0,.438-.196.438-.438s-.196-.438-.438-.438h-6.562ZM3.625,11.938c-.242,0-.438.196-.438.438s.196.438.438.438h.875c.242,0,.438-.196.438-.438s-.196-.438-.438-.438h-.875Z"/>
</svg>