<svg width="16" height="16" xmlns="http://www.w3.org/2000/svg" fill="context-fill" fill-opacity="context-fill-opacity">
  <path d="M10.2124,1.7653c-.1795.0057-.3382.1178-.4028.285l-4.4533,11.5778c-.0883.2299.0256.4873.2555.5766.2299.0883.4873-.0256.5766-.2555h0L10.6418,2.3714c.0883-.2289-.0256-.4873-.2546-.5757-.0551-.0218-.1149-.0313-.1748-.0294v-.0009ZM3.9561,4.4394c-.1178.0085-.2261.0636-.303.1529L.9819,7.7091c-.1425.1672-.1425.4132,0,.5804l2.6722,3.1167c.1634.1833.4455.1995.6289.0361.1786-.1596.1995-.4322.0465-.6165l-2.4223-2.827,2.4223-2.827c.1596-.1871.1387-.4674-.0484-.6279-.0893-.0769-.2052-.1149-.323-.1064h0l-.0019.0019ZM12.041,4.884c-.2451-.019-.4598.1643-.4778.4094-.0095.1178.0294.2346.1064.3239l2.4242,2.827-2.4223,2.827c-.1681.1795-.1596.4607.0199.6298.1795.1681.4607.1596.6298-.0199.0085-.0095.0171-.019.0247-.0294l2.6722-3.1167c.1425-.1672.1425-.4132,0-.5804l-2.6722-3.1167c-.076-.0893-.1852-.1444-.303-.1529h0l-.0019-.001Z"/>
</svg>