<svg width="16" height="16" xmlns="http://www.w3.org/2000/svg" fill="context-fill" fill-opacity="context-fill-opacity">
  <path class="st0" d="M8.538,1c0-.297-.241-.538-.538-.538s-.538.241-.538.538v14c0,.297.241.538.538.538s.538-.241.538-.538V1ZM6.385,13.385v-1.077h-3.231c-.595,0-1.077-.482-1.077-1.077v-6.462c0-.595.482-1.077,1.077-1.077h3.231v-1.077h-3.231c-1.19,0-2.154.964-2.154,2.154v6.462c0,1.19.964,2.154,2.154,2.154h3.231ZM12.846,13.385h-3.231v-1.077h3.231c.595,0,1.077-.482,1.077-1.077v-6.462c0-.595-.482-1.077-1.077-1.077h-3.231v-1.077h3.231c1.19,0,2.154.964,2.154,2.154v6.462c0,1.19-.964,2.154-2.154,2.154Z"/>
</svg>