<svg width="16" height="16" xmlns="http://www.w3.org/2000/svg" fill="context-fill" fill-opacity="context-fill-opacity">
  <path class="st0" d="M6.008,8.583l-.754.754c-.228.228-.228.597,0,.825.228.228.597.228.825,0l1.75-1.75c.228-.228.228-.597,0-.825l-1.75-1.75c-.228-.228-.597-.228-.825,0-.228.228-.228.597,0,.825l.754.754h-2.09c-.322,0-.583.261-.583.583s.261.583.583.583h2.09ZM12.667,13.835c1.289,0,2.333-1.045,2.333-2.333v-7.003c0-1.289-1.045-2.333-2.333-2.333H3.333c-1.289,0-2.333,1.045-2.333,2.333v7.003c0,1.289,1.045,2.333,2.333,2.333h9.333ZM13.833,11.501c0,.644-.522,1.167-1.167,1.167h-2.335V3.332h2.335c.644,0,1.167.522,1.167,1.167v7.003ZM9.165,3.332v9.336H3.333c-.644,0-1.167-.522-1.167-1.167v-7.003c0-.644.522-1.167,1.167-1.167h5.832Z"/>
</svg>