<svg width="16" height="16" xmlns="http://www.w3.org/2000/svg" fill="context-fill" fill-opacity="context-fill-opacity">
  <path class="st0" d="M1.086,5.183c-.357-1.334.434-2.704,1.768-3.062l3.864-1.035c1.334-.357,2.704.434,3.062,1.768l.575,2.146h-1.035l-.506-1.888c-.214-.8-1.037-1.275-1.837-1.061l-3.864,1.035c-.8.214-1.275,1.037-1.061,1.837l1.035,3.864c.214.8,1.037,1.275,1.837,1.061l.076-.02v1.028c-1.274.242-2.538-.537-2.879-1.81l-1.035-3.864ZM8,6c-1.105,0-2,.895-2,2v5c0,1.105.895,2,2,2h5c1.105,0,2-.895,2-2v-5c0-1.105-.895-2-2-2h-5ZM7,8c0-.552.448-1,1-1h5c.552,0,1,.448,1,1v5c0,.552-.448,1-1,1h-5c-.552,0-1-.448-1-1v-5ZM10.501-8183v16383M-8183,10.491h16383M12.853,10.946l.003-.003c.047-.047.082-.102.106-.16.024-.058.038-.122.038-.188v-.003s0-.003,0-.003c0-.067-.014-.13-.038-.188-.024-.059-.061-.114-.109-.162l-2-2c-.195-.195-.512-.195-.707,0-.195.195-.195.512,0,.707l1.146,1.146h-2.793c-.276,0-.5.224-.5.5s.224.5.5.5h2.793l-1.146,1.146c-.195.195-.195.512,0,.707.195.195.512.195.707,0l2-2Z"/>
</svg>