<svg width="16" height="16" xmlns="http://www.w3.org/2000/svg" fill="context-fill" fill-opacity="context-fill-opacity">
  <path class="st0" d="M1.086,5.183c-.357-1.334.434-2.704,1.768-3.062l3.864-1.035c1.334-.357,2.704.434,3.062,1.768l.575,2.146h-1.035l-.506-1.888c-.214-.8-1.037-1.275-1.837-1.061l-3.864,1.035c-.8.214-1.275,1.037-1.061,1.837l1.035,3.864c.214.8,1.037,1.275,1.837,1.061l.076-.02v1.028c-1.274.242-2.538-.537-2.879-1.81l-1.035-3.864ZM8,6c-1.105,0-2,.895-2,2v5c0,1.105.895,2,2,2h5c1.105,0,2-.895,2-2v-5c0-1.105-.895-2-2-2h-5ZM7,8c0-.552.448-1,1-1h5c.552,0,1,.448,1,1v5c0,.552-.448,1-1,1h-5c-.552,0-1-.448-1-1v-5ZM11,8.5c0-.276-.224-.5-.5-.5s-.5.224-.5.5v1.5h-1.5c-.276,0-.5.224-.5.5s.224.5.5.5h1.5v1.5c0,.276.224.5.5.5s.5-.224.5-.5v-1.5h1.5c.276,0,.5-.224.5-.5s-.224-.5-.5-.5h-1.5v-1.5Z"/>
</svg>