<svg width="16" height="16" xmlns="http://www.w3.org/2000/svg" fill="context-fill" fill-opacity="context-fill-opacity">
  <path d="M8,0c-.092,0-.183.027-.26.079-1.817,1.211-3.782,1.968-5.9,2.271-.231.033-.403.23-.403.463v4.219c0,3.648,2.163,6.31,6.394,7.938.109.042.229.042.337,0,4.229-1.627,6.394-4.289,6.394-7.938V2.812c0-.233-.172-.43-.403-.463-2.119-.303-4.083-1.059-5.9-2.271C8.183.027,8.092,0,7.999,0h0ZM8,1.029l.375.232c1.612.975,3.393,1.637,5.25,1.952v3.817c0,3.18-1.845,5.496-5.625,6.996-3.78-1.5-5.625-3.816-5.625-6.996v-3.817c1.857-.315,3.638-.977,5.25-1.952,0,0,.375-.232.375-.232Z"/>
</svg>
