<svg width="16" height="16" xmlns="http://www.w3.org/2000/svg" fill="context-fill" fill-opacity="context-fill-opacity">
  <path d="M14.562,14.618h1.438l-3.203-7.535c-.103-.245-.343-.405-.609-.406h-.724c-.265,0-.512.159-.618.406l-1.624,3.829-.009-.009c-1.073-.465-2.051-1.123-2.885-1.941.985-1.068,1.747-2.322,2.241-3.688l.441-1.244h.812v-1.324h-3.75v-1.324h-1.324v1.324H1v1.324h6.618l-.291.803c-.415,1.156-1.059,2.224-1.879,3.141-.618-.794-1.103-1.676-1.438-2.621h-1.421l.159.424c.403,1.135.99,2.197,1.738,3.141-.794.662-1.668,1.191-2.612,1.571v1.394c1.279-.441,2.464-1.117,3.494-1.994.96.947,2.088,1.707,3.326,2.241l-1.05,2.488h1.447l.935-2.206h3.6s.935,2.206.935,2.206ZM10.591,11.088l1.235-2.912,1.235,2.912s-2.471,0-2.471,0Z"/>
</svg>