<svg width="16" height="16" xmlns="http://www.w3.org/2000/svg" fill="context-fill" fill-opacity="context-fill-opacity">
  <path d="M8.453,1.203c0-.25-.203-.453-.453-.453s-.453.203-.453.453v5.437c0,.25.203.453.453.453s.453-.203.453-.453V1.203ZM11.392,2.563c-.217-.125-.494-.05-.619.167-.125.217-.05.494.166.619,1.124.647,2.003,1.647,2.5,2.845s.586,2.526.251,3.779c-.335,1.253-1.074,2.361-2.102,3.151-1.028.79-2.289,1.219-3.586,1.22-1.297,0-2.558-.427-3.587-1.216-1.029-.789-1.769-1.896-2.105-3.149-.336-1.253-.249-2.581.247-3.78.496-1.198,1.374-2.199,2.497-2.848.217-.125.291-.402.166-.619-.125-.217-.402-.291-.619-.166-1.296.748-2.309,1.903-2.881,3.286-.573,1.383-.673,2.916-.285,4.361.388,1.445,1.242,2.723,2.429,3.633,1.188.911,2.643,1.404,4.139,1.403,1.497,0,2.951-.495,4.138-1.407,1.187-.912,2.039-2.19,2.425-3.636.386-1.446.284-2.979-.29-4.361-.574-1.382-1.588-2.536-2.885-3.283Z"/>
</svg>