<svg width="16" height="16" xmlns="http://www.w3.org/2000/svg" fill="context-fill" fill-opacity="context-fill-opacity">
  <path id="svg_1" d="M9.781,11.483l-.66,1.979c-.253.759-1.216.986-1.781.42l-2.231-2.232-3.273,3.273h-.761v-.761l3.273-3.273-2.231-2.231c-.565-.566-.338-1.528.42-1.781l1.979-.66L.157,1.859C-.052,1.649-.052,1.308.157,1.098c.21-.21.551-.21.761,0l13.984,13.984c.21.21.21.551,0,.761s-.551.21-.761,0l-4.36-4.36s0,0,0,0ZM8.931,10.633l-3.564-3.564-2.49.83,5.223,5.223.83-2.49h0ZM13.354,7.646l-3.165,1.583.802.802,2.845-1.422c1.313-.657,1.597-2.407.559-3.445l-3.557-3.557c-1.038-1.038-2.789-.754-3.445.559l-1.422,2.845.802.802,1.583-3.165c.328-.657,1.203-.799,1.723-.28l3.557,3.557c.519.519.377,1.394-.28,1.723h0Z"/>
</svg>
