<svg width="16" height="16" xmlns="http://www.w3.org/2000/svg" fill="context-fill" fill-opacity="context-fill-opacity">
  <path d="M13.758,6.6c-.446,0-.893.168-1.234.511l-4.507,4.508c-.263.263-.449.592-.54.952l-.35,1.398c-.111.445.159.895.604,1.006.132.033.27.033.402,0l1.399-.35c.36-.09.69-.277.952-.539l4.507-4.506c.681-.684.678-1.791-.007-2.471-.326-.324-.767-.507-1.226-.508ZM13.756,7.535c.399.002.626.209.747.501.121.293.108.6-.175.884l-4.506,4.504c-.143.143-.323.245-.519.294l-1.229.31.308-1.232h-.003c.049-.196.152-.376.295-.52l4.507-4.508c.152-.152.358-.236.573-.233ZM7.906,14.069l.002.002h-.004l.002-.002Z"/>
  <path d="M5.949,4.804c-.219-.137-.507-.07-.643.148-.046.074-.071.16-.071.247v4.807c0,.258.209.467.467.467.092,0,.181-.027.258-.078l3.734-2.472c.215-.142.274-.432.131-.647-.037-.055-.084-.102-.141-.137l-3.735-2.336Z"/>
  <path d="M3.834,1c-1.289,0-2.334,1.045-2.334,2.333v8.4c0,1.289,1.045,2.333,2.334,2.333h2.34c.006-.107.021-.216.047-.325l.155-.609h-2.541c-.773,0-1.4-.627-1.4-1.4V3.333c0-.773.627-1.4,1.4-1.4h8.402c.773,0,1.4.627,1.4,1.4v2.339c.041-.002.081-.006.121-.006h.005c.284,0,.555.048.808.13v-2.464c0-1.288-1.045-2.332-2.334-2.332H3.834Z"/>
</svg>