<svg width="16" height="16" xmlns="http://www.w3.org/2000/svg" fill="context-fill" fill-opacity="context-fill-opacity">
  <defs>
    <style>
      .st0 {
        fill: none;
      }

      .st1 {
        clip-path: url(#clippath);
      }
    </style>
    <clipPath id="clippath">
      <path class="st0" d="M2.469.5l13.031,13.031V.5H2.469ZM.5,1.156v14.344h14.344L.5,1.156Z"/>
    </clipPath>
  </defs>
  <g class="st1">
    <path d="M8,4.25c-2.189,0-4.379.277-6.57.832-.549.141-.932.636-.93,1.203v2.39c0,1.691,1.35,3.075,3.034,3.075h1.879c.575,0,1.121-.251,1.496-.686l.497-.573c.281-.328.776-.366,1.104-.085.03.026.059.054.085.085l.497.573c.375.436.921.686,1.496.687h1.879c1.683,0,3.034-1.385,3.034-3.076v-2.391c0-.564-.379-1.063-.931-1.202-2.147-.548-4.353-.828-6.569-.832ZM8,5.187c2.108,0,4.222.267,6.339.802.127.032.223.15.223.294v2.39c0,1.188-.946,2.138-2.096,2.138h-1.879c-.3,0-.585-.131-.786-.363l-.497-.573c-.619-.72-1.705-.802-2.425-.182-.065.056-.126.117-.182.182l-.497.573c-.197.23-.485.362-.788.363h-1.879c-1.15,0-2.096-.951-2.096-2.138v-2.39c0-.144.097-.263.223-.295,2.072-.529,4.201-.798,6.339-.802h0ZM7.962,6.125c-.388.01-.694.333-.684.722.01.388.333.694.722.684.388-.01.694-.333.684-.722-.01-.374-.31-.674-.684-.684h-.037ZM2.844,7.062c-.259,0-.469.21-.469.469s.21.469.469.469h1.406c.259,0,.469-.21.469-.469s-.21-.469-.469-.469h-1.406ZM11.752,7.062c-.259-.001-.47.208-.471.467s.208.47.467.471l1.406.004c.259,0,.47-.21.471-.469,0-.259-.208-.469-.467-.469l-1.406-.004Z"/>
  </g>
  <path d="M.969.5c-.124,0-.244.049-.332.137-.183.183-.183.48,0,.663l14.062,14.062c.183.183.48.183.663,0,.183-.183.183-.48,0-.663L1.3.637c-.088-.088-.207-.137-.332-.137h0Z"/>
</svg>